<svg width="500" height="500" viewBox="0 0 500 500" fill="none" xmlns="http://www.w3.org/2000/svg">
<path d="M154.666 227.691C160.124 233.145 168.493 224.88 162.985 219.372L143.613 200L162.985 180.631C165.282 178.335 165.282 174.609 162.985 172.312C160.688 170.016 156.963 170.016 154.666 172.312L131.134 195.84C128.838 198.137 128.838 201.862 131.134 204.159L154.666 227.691Z" fill="white"/>
<path d="M221.806 227.691L245.338 204.159C247.634 201.862 247.634 198.141 245.338 195.84L221.806 172.312C219.509 170.016 215.788 170.016 213.487 172.312C211.191 174.609 211.191 178.335 213.487 180.631L232.859 200L213.487 219.372C207.975 224.884 216.366 233.131 221.806 227.691Z" fill="white"/>
<path d="M182.357 229.416C184.993 229.416 187.391 227.629 188.061 224.957L199.826 177.901C200.611 174.747 198.698 171.553 195.544 170.765C192.394 169.976 189.2 171.893 188.411 175.043L176.646 222.103C175.72 225.81 178.526 229.416 182.357 229.416Z" fill="white"/>
<path d="M247.059 264.707C243.811 264.707 241.178 267.344 241.178 270.591C241.178 273.839 243.811 276.473 247.059 276.473H364.706C367.954 276.473 370.587 273.839 370.587 270.591C370.587 267.344 367.954 264.707 364.706 264.707H358.825V217.647C358.825 214.399 356.188 211.766 352.94 211.766C349.692 211.766 347.059 214.399 347.059 217.647V264.707H335.293V205.885C335.293 202.637 332.66 200 329.412 200C326.164 200 323.531 202.637 323.531 205.885V264.707H311.765V241.179C311.765 237.931 309.132 235.298 305.884 235.298C302.633 235.298 300 237.931 300 241.179V264.707H288.234V229.413C288.234 226.165 285.601 223.532 282.353 223.532C279.105 223.532 276.472 226.165 276.472 229.413V264.707H264.706V247.06C264.706 243.812 262.073 241.179 258.825 241.179C255.577 241.179 252.94 243.812 252.94 247.06V264.707H247.059Z" fill="white"/>
<path d="M258.825 141.178H364.706C367.954 141.178 370.587 138.545 370.587 135.297C370.587 132.046 367.954 129.413 364.706 129.413H258.825C255.577 129.413 252.94 132.046 252.94 135.297C252.94 138.545 255.577 141.178 258.825 141.178Z" fill="white"/>
<path d="M258.825 164.706H329.413C332.66 164.706 335.294 162.073 335.294 158.825C335.294 155.577 332.66 152.944 329.413 152.944H258.825C255.577 152.944 252.94 155.577 252.94 158.825C252.94 162.073 255.577 164.706 258.825 164.706Z" fill="white"/>
<path d="M370.587 323.532C370.587 323.919 370.551 324.298 370.475 324.678C370.399 325.058 370.287 325.427 370.142 325.781C369.994 326.139 369.813 326.479 369.596 326.798C369.383 327.12 369.141 327.416 368.866 327.691C368.594 327.962 368.294 328.208 367.976 328.422C367.654 328.635 367.314 328.82 366.956 328.964C366.602 329.113 366.233 329.225 365.853 329.301C365.477 329.377 365.093 329.413 364.706 329.413C364.319 329.413 363.939 329.377 363.56 329.301C363.18 329.225 362.811 329.113 362.457 328.964C362.098 328.82 361.758 328.635 361.44 328.422C361.118 328.208 360.822 327.962 360.547 327.691C360.276 327.416 360.03 327.12 359.816 326.798C359.599 326.479 359.418 326.139 359.274 325.781C359.125 325.427 359.013 325.058 358.937 324.678C358.861 324.298 358.825 323.919 358.825 323.532C358.825 323.145 358.861 322.761 358.937 322.385C359.013 322.005 359.125 321.636 359.274 321.278C359.418 320.924 359.599 320.584 359.816 320.262C360.03 319.94 360.276 319.644 360.547 319.372C360.822 319.097 361.118 318.855 361.44 318.642C361.758 318.425 362.098 318.244 362.457 318.095C362.811 317.947 363.18 317.839 363.56 317.763C363.939 317.687 364.319 317.647 364.706 317.647C365.093 317.647 365.477 317.687 365.853 317.763C366.233 317.839 366.602 317.947 366.956 318.095C367.314 318.244 367.654 318.425 367.976 318.642C368.294 318.855 368.594 319.097 368.866 319.372C369.141 319.644 369.383 319.94 369.596 320.262C369.813 320.584 369.994 320.924 370.142 321.278C370.287 321.636 370.399 322.005 370.475 322.385C370.551 322.761 370.587 323.145 370.587 323.532Z" fill="white"/>
<path d="M341.178 317.647H335.294C332.046 317.647 329.413 320.284 329.413 323.532C329.413 326.78 332.046 329.413 335.294 329.413H341.178C344.426 329.413 347.059 326.78 347.059 323.532C347.059 320.284 344.426 317.647 341.178 317.647Z" fill="white"/>
<path d="M311.766 317.647H305.885C302.633 317.647 300 320.284 300 323.532C300 326.78 302.633 329.413 305.885 329.413H311.766C315.014 329.413 317.647 326.78 317.647 323.532C317.647 320.284 315.014 317.647 311.766 317.647Z" fill="white"/>
<mask id="mask0_75_277" style="mask-type:luminance" maskUnits="userSpaceOnUse" x="100" y="100" width="300" height="300">
<path d="M100 100H400V400H100V100Z" fill="white"/>
</mask>
<g mask="url(#mask0_75_277)">
<path d="M367.694 100H132.306C114.493 100 100 114.493 100 132.306V320.638C100 338.451 114.493 352.944 132.306 352.944H220.587V364.706H214.706C198.488 364.706 185.294 377.901 185.294 394.119C185.294 397.367 187.927 400 191.178 400H308.825C312.073 400 314.706 397.367 314.706 394.119C314.706 377.901 301.512 364.706 285.294 364.706H279.413V352.944H367.694C385.507 352.944 400 338.451 400 320.638V132.306C400 114.493 385.507 100 367.694 100ZM132.306 111.766H367.694C379.022 111.766 388.234 120.982 388.234 132.306V294.119H111.766V132.306C111.766 120.982 120.982 111.766 132.306 111.766ZM301.935 388.238H198.069C200.496 381.387 207.038 376.472 214.706 376.472H285.294C292.965 376.472 299.504 381.387 301.935 388.238ZM267.647 364.706H232.353V352.944H267.647V364.706ZM367.694 341.178H132.306C120.982 341.178 111.766 331.963 111.766 320.638V305.885H388.234V320.638C388.234 331.963 379.022 341.178 367.694 341.178Z" fill="white"/>
</g>
</svg>
