<svg width="500" height="500" viewBox="0 0 500 500" fill="none" xmlns="http://www.w3.org/2000/svg">
<mask id="mask0_75_278" style="mask-type:luminance" maskUnits="userSpaceOnUse" x="100" y="100" width="300" height="300">
<path d="M100 100H400V399.306H100V100Z" fill="white"/>
</mask>
<g mask="url(#mask0_75_278)">
<path d="M395.32 178.552L395.309 178.541L375.98 175.781C373.264 175.398 371.372 172.884 371.763 170.164C371.947 168.859 372.645 167.679 373.701 166.891L389.319 155.179C391.518 153.534 391.96 150.416 390.314 148.224L372.428 124.378C370.783 122.186 367.661 121.741 365.469 123.387L349.855 135.098C347.671 136.755 344.553 136.328 342.893 134.14C342.086 133.08 341.746 131.738 341.938 130.422L344.701 111.097C345.092 108.384 343.204 105.863 340.491 105.472L310.995 101.259C308.279 100.868 305.758 102.756 305.367 105.472L302.604 124.794C302.217 127.51 299.703 129.402 296.983 129.011C295.678 128.827 294.499 128.129 293.71 127.073L281.995 111.458C280.349 109.267 277.232 108.818 275.04 110.464L260.106 121.665C253.349 120.945 246.542 120.945 239.786 121.665C195.544 126.722 160.854 161.99 156.543 206.304C156.409 207.708 156.358 209.104 156.29 210.5H154.8C152.438 210.5 150.409 212.164 149.942 214.475L146.506 230.802L132.755 221.318C130.78 219.958 128.118 220.2 126.421 221.897L111.516 236.798C109.82 238.495 109.577 241.153 110.937 243.128L120.378 256.85L104.044 260.283C101.75 260.786 100.13 262.811 100.13 265.151V285.022C100.13 287.37 101.776 289.403 104.073 289.884L120.41 293.32L110.966 307.042C109.606 309.017 109.849 311.675 111.545 313.372L126.454 328.273C128.147 329.97 130.812 330.212 132.787 328.852L146.513 319.387L149.949 335.717C150.419 338.028 152.452 339.688 154.807 339.692H174.682C177.029 339.692 179.058 338.046 179.543 335.749L182.979 319.419L196.705 328.856C198.68 330.216 201.338 329.973 203.034 328.281L210.749 320.54V334.701C210.771 341.768 214.554 348.286 220.685 351.808V379.409C220.685 390.383 229.586 399.28 240.56 399.28H260.435C271.412 399.28 280.31 390.383 280.31 379.409V351.808C286.44 348.286 290.223 341.768 290.249 334.701V315.039C290.386 306.771 294.716 299.132 301.74 294.759C305.863 292.083 309.769 289.095 313.433 285.818L306.807 278.414C303.534 281.351 300.032 284.028 296.336 286.419C286.465 292.611 280.429 303.393 280.306 315.039V334.701C280.306 340.191 275.857 344.636 270.367 344.636H230.617C225.127 344.636 220.678 340.191 220.678 334.701V314.623C220.569 303.197 214.616 292.625 204.915 286.589C165.531 261.849 153.667 209.874 178.414 170.497C193.768 146.068 220.562 131.196 249.425 131.098C249.349 131.272 249.287 131.46 249.233 131.637C249.045 132.943 249.385 134.267 250.181 135.319L261.896 150.933C263.133 152.528 263.249 154.727 262.192 156.445C261.176 158.178 259.212 159.122 257.226 158.836L237.898 156.073C235.181 155.682 232.661 157.57 232.273 160.283L228.06 189.793C227.666 192.506 229.554 195.027 232.27 195.417L251.599 198.181C254.311 198.564 256.199 201.081 255.816 203.801C255.628 205.103 254.933 206.286 253.877 207.075L238.263 218.786C236.064 220.428 235.623 223.542 237.268 225.738L255.158 249.584C256.803 251.783 259.921 252.224 262.113 250.579L277.734 238.867C279.933 237.222 283.044 237.674 284.69 239.873C285.478 240.922 285.814 242.245 285.626 243.544L282.87 262.865C282.48 265.582 284.368 268.103 287.08 268.493L316.594 272.711C316.826 272.739 317.061 272.754 317.3 272.754C319.77 272.754 321.868 270.938 322.222 268.493L324.982 249.168C325.365 246.455 327.883 244.567 330.602 244.951C331.905 245.139 333.087 245.833 333.876 246.889L345.587 262.5C347.237 264.699 350.354 265.14 352.546 263.495L376.396 245.609C378.595 243.963 379.036 240.853 377.391 238.654L365.676 223.043C364.446 221.441 364.326 219.256 365.379 217.531C366.37 215.773 368.352 214.822 370.345 215.144L389.674 217.904C392.39 218.294 394.911 216.406 395.302 213.694L399.512 184.183C399.906 181.471 398.018 178.95 395.302 178.559L395.32 178.552ZM230.628 354.572H270.381V364.507H230.628V354.572ZM230.628 374.443H270.381V379.409C270.381 384.899 265.932 389.345 260.442 389.345H240.567C235.077 389.345 230.628 384.899 230.628 379.409V374.443ZM191.07 288.773C193.786 290.99 196.618 293.059 199.562 294.958C204.257 297.928 207.791 302.409 209.574 307.668L198.915 318.305L188.592 311.191C184.071 308.08 177.886 309.216 174.772 313.737C174.027 314.818 173.499 316.041 173.235 317.325L170.631 329.731H158.818L156.214 317.35C155.085 311.979 149.812 308.547 144.444 309.675C143.16 309.95 141.938 310.471 140.856 311.216L130.534 318.305L121.477 309.277L128.588 298.962C131.706 294.448 130.57 288.26 126.056 285.142C124.967 284.397 123.752 283.869 122.457 283.594L110.073 280.986V269.18L122.457 266.573C127.825 265.437 131.261 260.16 130.118 254.796C129.843 253.523 129.329 252.311 128.595 251.237L121.477 240.889L130.534 231.861L140.86 238.979C145.385 242.09 151.57 240.947 154.68 236.426C155.425 235.344 155.95 234.122 156.221 232.838L157.093 228.7C157.885 234.426 159.201 240.064 161.028 245.548C144.683 247.497 133.004 262.326 134.954 278.671C136.907 295.016 151.736 306.688 168.092 304.738C177.937 303.566 186.549 297.58 191.077 288.766L191.07 288.773ZM183.359 281.774C179.648 292.09 168.276 297.436 157.968 293.728C147.656 290.021 142.303 278.653 146.01 268.345C148.85 260.456 156.34 255.205 164.724 255.216H164.912C169.481 265.064 175.716 274.049 183.359 281.774ZM386.154 207.346L371.745 205.292C363.596 204.131 356.044 209.787 354.879 217.94C354.322 221.853 355.338 225.825 357.711 228.986L366.446 240.625L350.546 252.546L341.811 240.911C336.874 234.328 327.535 232.986 320.945 237.93C317.781 240.299 315.69 243.83 315.129 247.739L313.118 262.164L293.446 259.353L295.504 244.947C296.672 236.798 291.012 229.246 282.859 228.082C278.946 227.521 274.964 228.541 271.803 230.914L260.163 239.641L248.238 223.745L259.878 215.014C266.468 210.08 267.802 200.738 262.858 194.151C260.485 190.99 256.959 188.896 253.045 188.339L238.636 186.285L241.45 166.616L255.859 168.674C264.008 169.839 271.56 164.178 272.729 156.029C273.286 152.112 272.269 148.137 269.896 144.976L261.136 133.326L277.04 121.405L285.771 133.04C290.708 139.623 300.051 140.965 306.641 136.021C309.802 133.652 311.896 130.122 312.453 126.212L314.507 111.806L334.18 114.612L332.125 129.018C330.961 137.164 336.621 144.716 344.777 145.877C348.687 146.437 352.662 145.417 355.823 143.045L367.466 134.314L379.391 150.21L367.752 158.941C361.162 163.878 359.823 173.224 364.768 179.807C367.14 182.968 370.67 185.059 374.58 185.619L388.99 187.674L386.165 207.335L386.154 207.346ZM313.788 147.237C291.833 147.237 274.038 165.028 274.038 186.979C274.038 208.93 291.833 226.722 313.788 226.722C335.746 226.722 353.541 208.93 353.541 186.979C353.516 165.039 335.731 147.262 313.788 147.237ZM313.788 216.786C297.323 216.786 283.977 203.44 283.977 186.979C283.977 170.515 297.323 157.172 313.788 157.172C330.255 157.172 343.602 170.515 343.602 186.979C343.584 203.432 330.248 216.768 313.788 216.786ZM245.537 319.795H255.472V334.701H245.537V319.795ZM228.772 271.007C198.101 259.028 182.946 224.454 194.929 193.79C199.573 181.905 207.903 171.828 218.703 165.035L213.393 156.626C180.885 177.098 171.133 220.045 191.62 252.539C199.548 265.126 211.306 274.841 225.17 280.255C237.438 284.954 245.537 296.727 245.54 309.863H255.48C255.498 292.629 244.871 277.174 228.78 271.007H228.772ZM344.911 285.022H379.695V294.958H344.911V285.022ZM336.762 318.642L343.124 311.01L372.935 335.843L366.576 343.475L336.762 318.642ZM315.1 324.765H325.036V359.538H315.1V324.765ZM105.205 185.811L144.954 175.875L147.363 185.507L107.613 195.443L105.205 185.811ZM113.458 135.066L119.227 126.986L154.011 151.827L148.242 159.903L113.458 135.066ZM156.029 102.441L165.657 99.9819L175.817 139.724L166.189 142.184L156.029 102.441Z" fill="white"/>
</g>
</svg>
