<svg width="500" height="500" viewBox="0 0 500 500" fill="none" xmlns="http://www.w3.org/2000/svg">
<path d="M221.625 381.25H259.125C261.715 381.25 263.812 379.152 263.812 376.562C263.812 373.973 261.715 371.875 259.125 371.875H221.625C219.035 371.875 216.938 373.973 216.938 376.562C216.938 379.152 219.035 381.25 221.625 381.25Z" fill="white"/>
<path d="M226.312 123.437C226.312 123.745 226.284 124.052 226.222 124.353C226.161 124.653 226.074 124.949 225.954 125.231C225.839 125.517 225.694 125.785 225.524 126.042C225.35 126.298 225.159 126.534 224.938 126.754C224.721 126.971 224.486 127.167 224.229 127.337C223.972 127.507 223.705 127.651 223.419 127.771C223.133 127.886 222.84 127.977 222.54 128.035C222.236 128.096 221.932 128.125 221.625 128.125C221.318 128.125 221.014 128.096 220.71 128.035C220.41 127.977 220.117 127.886 219.831 127.771C219.545 127.651 219.278 127.507 219.021 127.337C218.764 127.167 218.529 126.971 218.312 126.754C218.091 126.534 217.9 126.298 217.726 126.042C217.556 125.785 217.411 125.517 217.296 125.231C217.176 124.949 217.086 124.653 217.028 124.353C216.966 124.052 216.938 123.745 216.938 123.437C216.938 123.13 216.966 122.826 217.028 122.522C217.086 122.222 217.176 121.929 217.296 121.644C217.411 121.361 217.556 121.09 217.726 120.833C217.9 120.577 218.091 120.341 218.312 120.124C218.529 119.907 218.764 119.712 219.021 119.542C219.278 119.368 219.545 119.224 219.831 119.108C220.117 118.989 220.41 118.902 220.71 118.84C221.014 118.779 221.318 118.75 221.625 118.75C221.932 118.75 222.236 118.779 222.54 118.84C222.84 118.902 223.133 118.989 223.419 119.108C223.705 119.224 223.972 119.368 224.229 119.542C224.486 119.712 224.721 119.907 224.938 120.124C225.159 120.341 225.35 120.577 225.524 120.833C225.694 121.09 225.839 121.361 225.954 121.644C226.074 121.929 226.161 122.222 226.222 122.522C226.284 122.826 226.312 123.13 226.312 123.437Z" fill="white"/>
<path d="M245.062 123.437C245.062 123.745 245.034 124.052 244.972 124.353C244.911 124.653 244.824 124.949 244.704 125.231C244.589 125.517 244.444 125.785 244.274 126.042C244.1 126.298 243.909 126.534 243.688 126.754C243.471 126.971 243.236 127.167 242.979 127.337C242.722 127.507 242.455 127.651 242.169 127.771C241.883 127.886 241.59 127.977 241.29 128.035C240.986 128.096 240.682 128.125 240.375 128.125C240.068 128.125 239.764 128.096 239.46 128.035C239.16 127.977 238.867 127.886 238.581 127.771C238.295 127.651 238.028 127.507 237.771 127.337C237.514 127.167 237.279 126.971 237.062 126.754C236.841 126.534 236.65 126.298 236.476 126.042C236.306 125.785 236.161 125.517 236.046 125.231C235.926 124.949 235.836 124.653 235.778 124.353C235.716 124.052 235.688 123.745 235.688 123.437C235.688 123.13 235.716 122.826 235.778 122.522C235.836 122.222 235.926 121.929 236.046 121.644C236.161 121.361 236.306 121.09 236.476 120.833C236.65 120.577 236.841 120.341 237.062 120.124C237.279 119.907 237.514 119.712 237.771 119.542C238.028 119.368 238.295 119.224 238.581 119.108C238.867 118.989 239.16 118.902 239.46 118.84C239.764 118.779 240.068 118.75 240.375 118.75C240.682 118.75 240.986 118.779 241.29 118.84C241.59 118.902 241.883 118.989 242.169 119.108C242.455 119.224 242.722 119.368 242.979 119.542C243.236 119.712 243.471 119.907 243.688 120.124C243.909 120.341 244.1 120.577 244.274 120.833C244.444 121.09 244.589 121.361 244.704 121.644C244.824 121.929 244.911 122.222 244.972 122.522C245.034 122.826 245.062 123.13 245.062 123.437Z" fill="white"/>
<path d="M263.812 123.437C263.812 123.745 263.784 124.052 263.722 124.353C263.661 124.653 263.574 124.949 263.454 125.231C263.339 125.517 263.194 125.785 263.024 126.042C262.85 126.298 262.659 126.534 262.438 126.754C262.221 126.971 261.986 127.167 261.729 127.337C261.472 127.507 261.205 127.651 260.919 127.771C260.633 127.886 260.34 127.977 260.04 128.035C259.736 128.096 259.432 128.125 259.125 128.125C258.818 128.125 258.514 128.096 258.21 128.035C257.91 127.977 257.617 127.886 257.331 127.771C257.045 127.651 256.778 127.507 256.521 127.337C256.264 127.167 256.029 126.971 255.812 126.754C255.591 126.534 255.4 126.298 255.226 126.042C255.056 125.785 254.911 125.517 254.796 125.231C254.676 124.949 254.586 124.653 254.528 124.353C254.466 124.052 254.438 123.745 254.438 123.437C254.438 123.13 254.466 122.826 254.528 122.522C254.586 122.222 254.676 121.929 254.796 121.644C254.911 121.361 255.056 121.09 255.226 120.833C255.4 120.577 255.591 120.341 255.812 120.124C256.029 119.907 256.264 119.712 256.521 119.542C256.778 119.368 257.045 119.224 257.331 119.108C257.617 118.989 257.91 118.902 258.21 118.84C258.514 118.779 258.818 118.75 259.125 118.75C259.432 118.75 259.736 118.779 260.04 118.84C260.34 118.902 260.633 118.989 260.919 119.108C261.205 119.224 261.472 119.368 261.729 119.542C261.986 119.712 262.221 119.907 262.438 120.124C262.659 120.341 262.85 120.577 263.024 120.833C263.194 121.09 263.339 121.361 263.454 121.644C263.574 121.929 263.661 122.222 263.722 122.522C263.784 122.826 263.812 123.13 263.812 123.437Z" fill="white"/>
<mask id="mask0_75_279" style="mask-type:luminance" maskUnits="userSpaceOnUse" x="156" y="100" width="170" height="300">
<path d="M156 100H325.253V400H156V100Z" fill="white"/>
</mask>
<g mask="url(#mask0_75_279)">
<path d="M306.163 100H174.587C164.319 100 156 108.395 156 118.75V381.25C156 391.605 164.319 400 174.587 400H306.163C316.428 400 324.75 391.605 324.75 381.25V353.125H165.375V146.875H315.375V221.875H324.75V118.75C324.75 108.395 316.428 100 306.163 100ZM315.375 362.5V381.25C315.375 386.422 311.241 390.625 306.163 390.625H174.587C169.509 390.625 165.375 386.422 165.375 381.25V362.5H315.375ZM315.375 137.5H165.375V118.75C165.375 113.581 169.509 109.375 174.587 109.375H306.163C311.241 109.375 315.375 113.581 315.375 118.75V137.5Z" fill="white"/>
</g>
<mask id="mask1_75_279" style="mask-type:luminance" maskUnits="userSpaceOnUse" x="230" y="230" width="114" height="114">
<path d="M230.808 230.942H343.5V343.905H230.808V230.942Z" fill="white"/>
</mask>
<g mask="url(#mask1_75_279)">
<path d="M343.5 250C343.5 239.645 335.105 231.25 324.75 231.25H249.75C239.395 231.25 231 239.645 231 250V325C231 335.355 239.395 343.75 249.75 343.75H324.75C335.105 343.75 343.5 335.355 343.5 325V250ZM334.125 325C334.125 330.172 329.922 334.375 324.75 334.375H249.75C244.578 334.375 240.375 330.172 240.375 325V250C240.375 244.831 244.578 240.625 249.75 240.625H324.75C329.922 240.625 334.125 244.831 334.125 250V325Z" fill="white"/>
</g>
<path d="M278.204 221.875C288.375 221.875 296.625 213.628 296.625 203.454V174.671C296.625 164.5 288.375 156.25 278.204 156.25H249.421C239.25 156.25 231 164.5 231 174.671V203.454C231 213.628 239.25 221.875 249.421 221.875H278.204ZM240.375 203.454V174.671C240.375 169.683 244.433 165.625 249.421 165.625H278.204C283.192 165.625 287.25 169.683 287.25 174.671V203.454C287.25 208.442 283.192 212.5 278.204 212.5H249.421C244.433 212.5 240.375 208.442 240.375 203.454Z" fill="white"/>
<path d="M187.905 231.25C180.642 231.25 174.75 237.142 174.75 244.408V264.967C174.75 272.233 180.642 278.125 187.905 278.125H208.47C215.733 278.125 221.625 272.233 221.625 264.967V244.408C221.625 237.142 215.733 231.25 208.47 231.25H187.905ZM212.25 244.408V264.967C212.25 267.054 210.554 268.75 208.47 268.75H187.905C185.821 268.75 184.125 267.054 184.125 264.967V244.408C184.125 242.325 185.821 240.625 187.905 240.625H208.47C210.554 240.625 212.25 242.325 212.25 244.408Z" fill="white"/>
<path d="M318.29 264.41C309.241 268.113 300.98 274.165 294.791 279.022C286.223 285.753 278.812 293.283 274.33 298.137C269.194 289.016 265.089 283.8 257.432 277.438C255.439 275.785 252.488 276.06 250.831 278.049C249.178 280.038 249.45 282.997 251.443 284.65C259.526 291.363 262.821 296.238 269.256 308.438C269.987 309.82 271.357 310.749 272.913 310.912C273.079 310.93 273.242 310.938 273.401 310.938C274.786 310.938 276.106 310.326 277.007 309.252C277.108 309.125 287.615 296.582 300.582 286.397C306.289 281.912 313.863 276.353 321.835 273.09C324.233 272.11 325.383 269.372 324.403 266.978C323.423 264.583 320.681 263.44 318.29 264.41Z" fill="white"/>
</svg>
