<svg width="500" height="500" viewBox="0 0 500 500" fill="none" xmlns="http://www.w3.org/2000/svg">
<path d="M298.3 134.834C298.3 136.49 299.646 137.836 301.306 137.836H311.212C312.873 137.836 314.218 136.49 314.218 134.834C314.218 133.177 312.873 131.835 311.212 131.835H301.306C299.646 131.835 298.3 133.177 298.3 134.834Z" fill="white" stroke="white" stroke-width="3"/>
<path d="M300.311 130.975C300.944 130.975 301.581 130.776 302.123 130.363L310.023 124.388C311.346 123.386 311.603 121.506 310.601 120.185C309.599 118.862 307.719 118.605 306.395 119.603L298.495 125.582C297.175 126.584 296.915 128.464 297.917 129.785C298.506 130.562 299.403 130.975 300.311 130.975Z" fill="white" stroke="white" stroke-width="3"/>
<path d="M310.023 145.283L302.127 139.304C300.803 138.302 298.919 138.563 297.917 139.883C296.915 141.207 297.175 143.087 298.495 144.089L306.395 150.064C306.937 150.477 307.574 150.676 308.207 150.676C309.115 150.676 310.012 150.263 310.605 149.486C311.603 148.165 311.346 146.281 310.023 145.283Z" fill="white" stroke="white" stroke-width="3"/>
<mask id="mask0_75_280" style="mask-type:luminance" maskUnits="userSpaceOnUse" x="339" y="209" width="63" height="70">
<path d="M341.041 211.421H400V277.162H341.041V211.421Z" fill="white" stroke="white" stroke-width="3"/>
</mask>
<g mask="url(#mask0_75_280)">
<path d="M396.991 213.302H366.312C366.135 212.825 365.954 212.347 365.773 211.874L362.044 213.302H344.329C342.669 213.302 341.323 214.644 341.323 216.301V256.691C341.323 258.347 342.669 259.693 344.329 259.693H356.471V273.426C356.471 274.663 357.23 275.773 358.384 276.222C358.738 276.359 359.107 276.428 359.473 276.428C360.297 276.428 361.104 276.088 361.683 275.459L367.151 269.527C367.007 270.786 366.84 272.044 366.656 273.292L372.598 274.167C372.862 272.391 373.09 270.587 373.275 268.8L368.294 268.286L371.759 264.521L373.633 264.651C373.683 263.885 373.73 263.107 373.77 262.336L376.208 259.693H396.991C398.651 259.693 399.996 258.347 399.996 256.691V216.301C399.993 214.644 398.651 213.302 396.991 213.302ZM393.985 253.692H374.891C374.049 253.692 373.249 254.043 372.678 254.661L362.478 265.736V256.691C362.478 255.034 361.133 253.692 359.473 253.692H347.331V219.303H393.985V253.692Z" fill="white" stroke="white" stroke-width="3"/>
</g>
<path d="M353.494 250.839C355.056 251.403 356.778 250.6 357.342 249.045L358.605 245.576H365.831L367.093 249.045C367.538 250.264 368.688 251.019 369.918 251.019C370.258 251.019 370.605 250.962 370.942 250.839C372.504 250.274 373.307 248.553 372.739 246.994L372.569 246.524C373.933 249.341 376.823 251.291 380.161 251.291C381.532 251.291 382.831 250.962 383.977 250.376C384.487 250.777 385.131 251.019 385.833 251.019C387.493 251.019 388.838 249.678 388.838 248.017V226.848C388.838 225.188 387.493 223.846 385.833 223.846C384.176 223.846 382.831 225.188 382.831 226.848V234.892C381.991 234.613 381.094 234.458 380.161 234.458C375.514 234.458 371.734 238.234 371.734 242.874C371.734 243.583 371.824 244.27 371.991 244.929L365.043 225.821C364.612 224.634 363.484 223.846 362.218 223.846C360.956 223.846 359.827 224.634 359.397 225.821L351.696 246.994C351.128 248.553 351.935 250.274 353.494 250.839ZM380.161 240.458C381.492 240.458 382.577 241.543 382.577 242.874C382.577 244.205 381.492 245.287 380.161 245.287C378.827 245.287 377.742 244.205 377.742 242.874C377.742 241.543 378.827 240.458 380.161 240.458ZM362.218 235.637L363.65 239.572H360.786L362.218 235.637Z" fill="white" stroke="white" stroke-width="3"/>
<path d="M141.931 242.263L125.358 232.707C124.429 232.168 123.282 232.168 122.352 232.707C121.423 233.243 120.851 234.234 120.851 235.304V254.42C120.851 255.49 121.423 256.481 122.352 257.017C122.819 257.284 123.336 257.418 123.857 257.418C124.374 257.418 124.892 257.284 125.358 257.017L141.931 247.461C142.86 246.922 143.432 245.934 143.432 244.86C143.432 243.79 142.86 242.799 141.931 242.263ZM126.859 249.222V240.502L134.422 244.864L126.859 249.222Z" fill="white" stroke="white" stroke-width="3"/>
<path d="M146.072 224.175H151.302V228.851H146.072V224.175Z" fill="white" stroke="white" stroke-width="3"/>
<path d="M109.082 224.175H114.312V228.851H109.082V224.175Z" fill="white" stroke="white" stroke-width="3"/>
<path d="M118.33 224.175H123.557V228.851H118.33V224.175Z" fill="white" stroke="white" stroke-width="3"/>
<path d="M136.827 224.175H142.054V228.851H136.827V224.175Z" fill="white" stroke="white" stroke-width="3"/>
<path d="M127.579 224.175H132.805V228.851H127.579V224.175Z" fill="white" stroke="white" stroke-width="3"/>
<path d="M127.579 261.194H132.805V265.87H127.579V261.194Z" fill="white" stroke="white" stroke-width="3"/>
<path d="M146.072 261.194H151.302V265.87H146.072V261.194Z" fill="white" stroke="white" stroke-width="3"/>
<path d="M118.33 261.194H123.557V265.87H118.33V261.194Z" fill="white" stroke="white" stroke-width="3"/>
<path d="M136.827 261.194H142.054V265.87H136.827V261.194Z" fill="white" stroke="white" stroke-width="3"/>
<path d="M109.082 261.194H114.312V265.87H109.082V261.194Z" fill="white" stroke="white" stroke-width="3"/>
<path d="M168.703 355.125C168.703 356.586 169.889 357.772 171.354 357.772H196.734C198.199 357.772 199.389 356.586 199.389 355.125C199.389 353.66 198.199 352.474 196.734 352.474H171.354C169.889 352.474 168.703 353.66 168.703 355.125Z" fill="white" stroke="white" stroke-width="3"/>
<path d="M196.734 361.461H171.354C169.889 361.461 168.703 362.648 168.703 364.109C168.703 365.574 169.889 366.76 171.354 366.76H196.734C198.199 366.76 199.389 365.574 199.389 364.109C199.389 362.648 198.199 361.461 196.734 361.461Z" fill="white" stroke="white" stroke-width="3"/>
<path d="M196.734 370.446H171.354C169.889 370.446 168.703 371.632 168.703 373.097C168.703 374.562 169.889 375.748 171.354 375.748H196.734C198.199 375.748 199.389 374.562 199.389 373.097C199.389 371.632 198.199 370.446 196.734 370.446Z" fill="white" stroke="white" stroke-width="3"/>
<path d="M196.734 379.434H171.354C169.889 379.434 168.703 380.62 168.703 382.085C168.703 383.546 169.889 384.732 171.354 384.732H196.734C198.199 384.732 199.389 383.546 199.389 382.085C199.389 380.62 198.199 379.434 196.734 379.434Z" fill="white" stroke="white" stroke-width="3"/>
<mask id="mask1_75_280" style="mask-type:luminance" maskUnits="userSpaceOnUse" x="282" y="325" width="96" height="70">
<path d="M283.633 327.163H376.226V393.5H283.633V327.163Z" fill="white" stroke="white" stroke-width="3"/>
</mask>
<g mask="url(#mask1_75_280)">
<path d="M374.067 345.75L364.236 341.514L367.278 331.26C367.574 330.262 367.256 329.181 366.464 328.501C365.672 327.817 364.554 327.665 363.61 328.106L347.902 335.452C347.215 335.774 346.698 336.371 346.484 337.098L343.11 348.466L338.683 350.535C337.67 348.802 336.476 347.182 335.113 345.688C335.475 345.352 335.833 345.008 336.187 344.668L332.02 340.346C331.554 340.794 331.08 341.243 330.603 341.688C328.895 340.465 327.062 339.438 325.112 338.613C321.586 337.123 317.839 336.367 313.979 336.367C310.12 336.367 306.377 337.123 302.85 338.613C299.443 340.053 296.387 342.111 293.761 344.733C291.135 347.356 289.073 350.412 287.634 353.812C286.14 357.335 285.384 361.078 285.384 364.93C285.384 365.91 285.435 366.883 285.532 367.849C284.932 368.033 284.332 368.214 283.735 368.388L285.424 374.146C285.872 374.016 286.321 373.882 286.773 373.744C287.026 374.522 287.312 375.292 287.634 376.048C289.073 379.452 291.135 382.505 293.761 385.127C296.387 387.749 299.443 389.811 302.85 391.25C306.377 392.737 310.12 393.493 313.979 393.493C317.839 393.493 321.586 392.737 325.112 391.25C328.516 389.811 331.576 387.749 334.201 385.127C336.827 382.505 338.889 379.452 340.328 376.048C341.819 372.526 342.574 368.786 342.574 364.93C342.574 361.628 342.021 358.409 340.922 355.338L345.36 353.266L356.261 357.957C356.594 358.101 356.952 358.174 357.31 358.174C357.693 358.174 358.077 358.09 358.435 357.924L374.143 350.578C375.087 350.137 375.687 349.182 375.669 348.14C375.655 347.099 375.025 346.162 374.067 345.75ZM330.447 381.38C326.049 385.774 320.2 388.194 313.979 388.194C307.758 388.194 301.91 385.774 297.512 381.38C293.113 376.989 290.69 371.144 290.69 364.93C290.69 358.716 293.113 352.875 297.512 348.48C301.91 344.086 307.758 341.666 313.979 341.666C320.2 341.666 326.049 344.086 330.447 348.48C331.767 349.797 332.903 351.244 333.854 352.792L330.031 354.582C329.3 353.461 328.454 352.408 327.485 351.443C323.879 347.837 319.083 345.855 313.979 345.855C308.879 345.855 304.083 347.837 300.474 351.443C296.868 355.045 294.882 359.837 294.882 364.93C294.882 370.026 296.868 374.819 300.474 378.421C304.083 382.023 308.879 384.009 313.979 384.009C319.083 384.009 323.879 382.023 327.485 378.421C331.091 374.819 333.08 370.026 333.08 364.93C333.08 363.024 332.802 361.161 332.266 359.385L336.093 357.595C336.867 359.931 337.272 362.398 337.272 364.93C337.272 371.144 334.849 376.989 330.447 381.38ZM311.78 366.04C312.229 367.003 313.187 367.567 314.185 367.567C314.562 367.567 314.941 367.487 315.307 367.317L318.146 365.99C317.672 367.845 315.983 369.223 313.979 369.223C311.61 369.223 309.682 367.299 309.682 364.934C309.682 362.565 311.61 360.64 313.979 360.64C314.71 360.64 315.394 360.821 315.998 361.143L313.057 362.518C311.73 363.136 311.158 364.713 311.78 366.04ZM313.979 355.342C308.684 355.342 304.376 359.642 304.376 364.934C304.376 370.222 308.684 374.526 313.979 374.526C319.274 374.526 323.582 370.222 323.582 364.934C323.582 364.445 323.546 363.964 323.477 363.498L327.384 361.671C327.637 362.716 327.774 363.809 327.774 364.934C327.774 372.529 321.586 378.71 313.983 378.71C306.377 378.71 300.188 372.529 300.188 364.934C300.188 357.335 306.377 351.153 313.983 351.153C318.573 351.153 322.645 353.407 325.156 356.861L321.26 358.684C319.495 356.636 316.887 355.342 313.979 355.342ZM351.233 339.746L360.514 335.405L358.818 341.12L349.537 345.46L351.233 339.746ZM357.263 352.622L351.783 350.26L361.068 345.92L366.547 348.281L357.263 352.622Z" fill="white" stroke="white" stroke-width="3"/>
</g>
<path d="M286.346 324.707C286.346 322.96 284.928 321.542 283.181 321.542H269.101V308.532H318.801C320.548 308.532 321.965 307.114 321.965 305.367V205.588C321.965 203.841 320.548 202.423 318.801 202.423H184.621C182.874 202.423 181.453 203.841 181.453 205.588V305.367C181.453 307.114 182.874 308.532 184.621 308.532H234.321V321.542H220.24C218.493 321.542 217.072 322.96 217.072 324.707C217.072 326.454 218.493 327.871 220.24 327.871H283.181C284.928 327.871 286.346 326.454 286.346 324.707ZM187.789 208.752H315.632V283.687H187.789V208.752ZM262.768 321.542H240.654V308.532H262.768V321.542ZM265.932 302.079H237.489C237.185 302.079 236.892 302.123 236.614 302.202H187.789V290.013H315.632V302.202H266.808C266.529 302.123 266.236 302.079 265.932 302.079Z" fill="white" stroke="white" stroke-width="3"/>
<path d="M152.959 191.333L147.953 188.013C147.002 189.445 146.068 190.918 145.175 192.39L150.318 195.497C151.165 194.097 152.051 192.697 152.959 191.333Z" fill="white" stroke="white" stroke-width="3"/>
<path d="M169.741 171.318L165.592 166.981C164.348 168.167 163.111 169.397 161.918 170.634L166.247 174.797C167.383 173.618 168.558 172.45 169.741 171.318Z" fill="white" stroke="white" stroke-width="3"/>
<path d="M176.27 165.538L172.454 160.901C171.126 161.993 169.803 163.129 168.522 164.275L172.526 168.746C173.749 167.654 175.007 166.576 176.27 165.538Z" fill="white" stroke="white" stroke-width="3"/>
<path d="M144.416 206.532L138.972 203.993C138.245 205.552 137.54 207.147 136.878 208.734L142.423 211.042C143.052 209.53 143.725 208.015 144.416 206.532Z" fill="white" stroke="white" stroke-width="3"/>
<path d="M163.657 177.568L159.198 173.549C158.048 174.822 156.905 176.143 155.805 177.463L160.428 181.297C161.473 180.038 162.562 178.783 163.657 177.568Z" fill="white" stroke="white" stroke-width="3"/>
<path d="M148.405 198.773L143.164 195.836C142.321 197.334 141.5 198.875 140.723 200.408L146.079 203.121C146.821 201.663 147.602 200.198 148.405 198.773Z" fill="white" stroke="white" stroke-width="3"/>
<path d="M206.091 147.688L203.801 142.14C202.213 142.795 200.615 143.489 199.052 144.213L201.573 149.66C203.06 148.972 204.579 148.311 206.091 147.688Z" fill="white" stroke="white" stroke-width="3"/>
<path d="M222.642 142.288L221.209 136.461C219.542 136.87 217.857 137.322 216.207 137.8L217.886 143.561C219.455 143.106 221.054 142.679 222.642 142.288Z" fill="white" stroke="white" stroke-width="3"/>
<path d="M198.159 151.302L195.464 145.941C193.927 146.712 192.386 147.526 190.882 148.361L193.804 153.606C195.233 152.81 196.698 152.036 198.159 151.302Z" fill="white" stroke="white" stroke-width="3"/>
<path d="M158.051 184.252L153.306 180.573C152.25 181.93 151.208 183.329 150.213 184.729L155.107 188.209C156.058 186.874 157.049 185.546 158.051 184.252Z" fill="white" stroke="white" stroke-width="3"/>
<path d="M214.265 144.679L212.399 138.975C210.768 139.507 209.122 140.082 207.509 140.686L209.617 146.307C211.147 145.731 212.713 145.185 214.265 144.679Z" fill="white" stroke="white" stroke-width="3"/>
<path d="M183.21 160.254L179.745 155.349C178.342 156.34 176.939 157.375 175.575 158.423L179.239 163.176C180.538 162.178 181.872 161.194 183.21 160.254Z" fill="white" stroke="white" stroke-width="3"/>
<path d="M190.52 155.501L187.431 150.354C185.956 151.237 184.48 152.162 183.04 153.106L186.343 158.119C187.71 157.222 189.117 156.34 190.52 155.501Z" fill="white" stroke="white" stroke-width="3"/>
<mask id="mask2_75_280" style="mask-type:luminance" maskUnits="userSpaceOnUse" x="222" y="104" width="78" height="72">
<path d="M224.374 106H297.522V174.385H224.374V106Z" fill="white" stroke="white" stroke-width="3"/>
</mask>
<g mask="url(#mask2_75_280)">
<path d="M227.065 141.294C229.073 145.692 233.351 148.842 238.397 149.24V167.068C238.397 171.097 241.678 174.374 245.707 174.374H246.419C250.452 174.374 253.733 171.097 253.733 167.068V149.283H259.173C259.285 149.316 259.393 149.345 259.509 149.37C268.193 151.07 276.248 155.11 282.805 161.046L286.303 164.214C286.867 164.724 287.59 164.992 288.321 164.992C288.733 164.992 289.146 164.905 289.536 164.731C290.625 164.25 291.323 163.176 291.323 161.99L291.33 144.267C294.889 143.019 297.443 139.63 297.443 135.655C297.443 131.68 294.889 128.295 291.33 127.043L291.323 109.233C291.323 108.047 290.625 106.969 289.536 106.492C288.451 106.011 287.185 106.213 286.303 107.009L282.805 110.177C276.251 116.113 268.193 120.149 259.509 121.853C259.288 121.896 259.078 121.965 258.88 122.052H239.478C232.046 122.052 225.984 128.023 225.85 135.42C225.615 135.467 225.376 135.514 225.141 135.564L226.382 141.438C226.606 141.388 226.837 141.341 227.065 141.294ZM291.312 135.221C291.327 135.102 291.334 134.979 291.334 134.856V132.392C292.213 133.206 292.763 134.367 292.763 135.655C292.763 136.946 292.213 138.107 291.334 138.921V136.367C291.334 136.244 291.327 136.121 291.312 136.002V135.221ZM263.104 136.367V127.206C271.275 125.213 278.881 121.361 285.319 115.95L285.326 134.49C285.312 134.613 285.305 134.733 285.305 134.859V136.367C285.305 136.49 285.312 136.613 285.326 136.733L285.319 155.273C278.881 149.862 271.275 146.01 263.104 144.017V136.367ZM247.725 167.068C247.725 167.787 247.139 168.373 246.419 168.373H245.707C244.987 168.373 244.405 167.787 244.405 167.068V149.305H247.725V167.068ZM239.478 128.052H257.082V134.856C257.082 134.95 257.089 135.044 257.096 135.138V136.085C257.086 136.179 257.082 136.27 257.082 136.367V143.283H239.478C235.276 143.283 231.854 139.865 231.854 135.666C231.854 131.467 235.276 128.052 239.478 128.052Z" fill="white" stroke="white" stroke-width="3"/>
</g>
<path d="M136.046 280.548L130.172 281.799C130.534 283.503 130.939 285.221 131.377 286.903L137.193 285.402C136.777 283.799 136.393 282.168 136.046 280.548Z" fill="white" stroke="white" stroke-width="3"/>
<path d="M144.463 305.587L139.023 308.13C139.761 309.707 140.542 311.288 141.348 312.828L146.676 310.054C145.909 308.589 145.164 307.085 144.463 305.587Z" fill="white" stroke="white" stroke-width="3"/>
<path d="M138.216 289.098L132.451 290.791C132.943 292.462 133.478 294.144 134.039 295.789L139.724 293.851C139.189 292.285 138.683 290.686 138.216 289.098Z" fill="white" stroke="white" stroke-width="3"/>
<path d="M141.027 297.46L135.406 299.584C136.024 301.211 136.686 302.85 137.37 304.448L142.893 302.083C142.238 300.564 141.612 299.008 141.027 297.46Z" fill="white" stroke="white" stroke-width="3"/>
<path d="M153.132 320.945L148.137 324.28C149.103 325.727 150.116 327.174 151.143 328.577L155.993 325.036C155.017 323.698 154.051 322.323 153.132 320.945Z" fill="white" stroke="white" stroke-width="3"/>
<path d="M158.308 328.096L153.577 331.792C154.651 333.163 155.769 334.53 156.897 335.854L161.469 331.959C160.395 330.7 159.332 329.398 158.308 328.096Z" fill="white" stroke="white" stroke-width="3"/>
<path d="M148.506 313.429L143.273 316.376C144.13 317.892 145.027 319.407 145.949 320.887L151.049 317.718C150.177 316.315 149.32 314.868 148.506 313.429Z" fill="white" stroke="white" stroke-width="3"/>
<mask id="mask3_75_280" style="mask-type:luminance" maskUnits="userSpaceOnUse" x="98" y="210" width="66" height="70">
<path d="M100 212.348H162.337V278.088H100V212.348Z" fill="white" stroke="white" stroke-width="3"/>
</mask>
<g mask="url(#mask3_75_280)">
<path d="M135.098 275.567H151.53C157.013 275.567 161.48 271.108 161.48 265.628V224.095C161.48 218.616 157.013 214.156 151.53 214.156H139.945L135.406 212.438C135.189 213.006 134.975 213.581 134.769 214.156H109.946C104.46 214.156 99.9964 218.616 99.9964 224.095V265.628C99.9964 271.108 104.46 275.567 109.946 275.567H129.011C129.131 276.323 129.257 277.083 129.391 277.831L135.308 276.775C135.236 276.374 135.163 275.972 135.098 275.567ZM109.946 269.567C107.773 269.567 106.004 267.798 106.004 265.628V224.095C106.004 221.925 107.773 220.156 109.946 220.156H151.53C153.7 220.156 155.472 221.925 155.472 224.095V224.175H155.32V228.851H155.472V261.194H155.32V265.87H155.462C155.339 267.928 153.621 269.567 151.526 269.567H109.946Z" fill="white" stroke="white" stroke-width="3"/>
</g>
<path d="M250.698 373.104C249.975 373.104 249.248 373.097 248.528 373.086L248.419 379.083C249.172 379.097 249.939 379.104 250.698 379.104C251.7 379.104 252.713 379.094 253.715 379.068L253.57 373.068C252.619 373.093 251.653 373.104 250.698 373.104Z" fill="white" stroke="white" stroke-width="3"/>
<path d="M275.098 370.565L276.338 376.435C278.06 376.07 279.792 375.665 281.496 375.227L279.999 369.415C278.382 369.831 276.729 370.218 275.098 370.565Z" fill="white" stroke="white" stroke-width="3"/>
<path d="M266.316 372.074L267.108 378.023C268.851 377.792 270.609 377.517 272.342 377.213L271.293 371.303C269.647 371.596 267.972 371.853 266.316 372.074Z" fill="white" stroke="white" stroke-width="3"/>
<path d="M229.778 377.34C231.507 377.633 233.272 377.897 235.015 378.117L235.771 372.164C234.111 371.954 232.436 371.704 230.791 371.422L229.778 377.34Z" fill="white" stroke="white" stroke-width="3"/>
<path d="M239.066 378.562C240.813 378.728 242.593 378.855 244.347 378.942L244.651 372.952C242.98 372.865 241.291 372.742 239.627 372.587L239.066 378.562Z" fill="white" stroke="white" stroke-width="3"/>
<path d="M220.609 375.408C222.313 375.835 224.052 376.233 225.774 376.584L226.982 370.706C225.344 370.37 223.691 369.994 222.07 369.589L220.609 375.408Z" fill="white" stroke="white" stroke-width="3"/>
<path d="M257.444 372.913L257.784 378.906C259.538 378.805 261.314 378.667 263.061 378.493L262.464 372.522C260.804 372.688 259.111 372.819 257.444 372.913Z" fill="white" stroke="white" stroke-width="3"/>
<path d="M211.614 372.786C213.281 373.34 214.981 373.868 216.674 374.352L218.327 368.583C216.721 368.124 215.101 367.621 213.516 367.093L211.614 372.786Z" fill="white" stroke="white" stroke-width="3"/>
<mask id="mask4_75_280" style="mask-type:luminance" maskUnits="userSpaceOnUse" x="158" y="332" width="54" height="63">
<path d="M159.56 333.644H210.485V393.5H159.56V333.644Z" fill="white" stroke="white" stroke-width="3"/>
</mask>
<g mask="url(#mask4_75_280)">
<path d="M208.442 348.553C208.442 347.847 208.163 347.175 207.668 346.679L195.436 334.461C195.396 334.421 195.356 334.385 195.313 334.345C195.302 334.338 195.291 334.327 195.28 334.317C195.24 334.284 195.197 334.251 195.157 334.219C195.15 334.215 195.146 334.212 195.139 334.208C195.096 334.172 195.049 334.143 195.002 334.11C194.987 334.103 194.973 334.092 194.958 334.085C194.915 334.056 194.871 334.031 194.828 334.005C194.821 334.005 194.817 334.002 194.81 333.998C194.763 333.969 194.712 333.948 194.662 333.922C194.643 333.919 194.633 333.911 194.618 333.904C194.567 333.883 194.52 333.864 194.47 333.846C194.466 333.843 194.463 333.843 194.455 333.839C194.405 333.821 194.35 333.803 194.296 333.788C194.282 333.785 194.267 333.781 194.253 333.778C194.202 333.763 194.152 333.752 194.097 333.741C194.094 333.738 194.09 333.738 194.086 333.738C194.029 333.727 193.974 333.716 193.916 333.709C193.902 333.705 193.887 333.705 193.873 333.702C193.826 333.698 193.775 333.694 193.725 333.691C193.718 333.691 193.707 333.687 193.699 333.687C193.652 333.687 193.609 333.684 193.562 333.684H162.298C160.833 333.684 159.646 334.87 159.646 336.335V338.809L159.57 338.877C159.596 338.906 159.621 338.932 159.646 338.961V390.82C159.646 392.285 160.833 393.471 162.298 393.471H205.791C207.256 393.471 208.446 392.285 208.446 390.82V369.625L209.863 365.805C209.393 365.632 208.919 365.451 208.446 365.266V348.553H208.442ZM196.213 342.776L198.785 345.37H196.213V342.776ZM203.14 388.172H164.952V338.986H190.907V348.021C190.907 349.486 192.097 350.672 193.562 350.672H203.14V388.172Z" fill="white" stroke="white" stroke-width="3"/>
</g>
<path d="M359.527 299.612L365.104 301.848C365.773 300.18 366.417 298.473 367.01 296.78L361.343 294.791C360.775 296.404 360.164 298.025 359.527 299.612Z" fill="white" stroke="white" stroke-width="3"/>
<path d="M351.439 315.921L356.597 318.995C357.519 317.451 358.42 315.867 359.27 314.286L353.982 311.443C353.172 312.944 352.318 314.449 351.439 315.921Z" fill="white" stroke="white" stroke-width="3"/>
<path d="M355.801 307.924L361.187 310.586C361.986 308.976 362.757 307.327 363.484 305.685L357.99 303.262C357.295 304.824 356.561 306.39 355.801 307.924Z" fill="white" stroke="white" stroke-width="3"/>
<path d="M362.59 291.033L368.323 292.827C368.862 291.113 369.365 289.362 369.828 287.626L364.019 286.089C363.581 287.738 363.1 289.406 362.59 291.033Z" fill="white" stroke="white" stroke-width="3"/>
<path d="M371.918 278.28L366.008 277.202C365.701 278.88 365.354 280.577 364.97 282.244L370.826 283.582C371.228 281.832 371.596 280.049 371.918 278.28Z" fill="white" stroke="white" stroke-width="3"/>
<path d="M346.466 323.553L351.371 327.018C352.409 325.553 353.429 324.045 354.402 322.533L349.349 319.285C348.427 320.721 347.454 322.157 346.466 323.553Z" fill="white" stroke="white" stroke-width="3"/>
<path d="M340.918 330.779L345.537 334.613C346.687 333.232 347.819 331.807 348.908 330.378L344.123 326.747C343.088 328.107 342.01 329.466 340.918 330.779Z" fill="white" stroke="white" stroke-width="3"/>
<path d="M334.823 337.557L339.135 341.735C340.386 340.447 341.627 339.112 342.82 337.77L338.332 333.785C337.196 335.061 336.013 336.331 334.823 337.557Z" fill="white" stroke="white" stroke-width="3"/>
<path d="M314.131 150.455C313.39 150.01 312.637 149.565 311.889 149.139L308.901 154.343C309.614 154.752 310.33 155.172 311.035 155.595L314.131 150.455Z" fill="white" stroke="white" stroke-width="3"/>
<path d="M350.145 193.985L355.237 190.802C354.275 189.265 353.262 187.724 352.232 186.23L347.284 189.633C348.267 191.059 349.23 192.52 350.145 193.985Z" fill="white" stroke="white" stroke-width="3"/>
<path d="M354.727 201.978L360.055 199.204C359.216 197.594 358.326 195.981 357.415 194.408L352.217 197.417C353.082 198.911 353.928 200.448 354.727 201.978Z" fill="white" stroke="white" stroke-width="3"/>
<path d="M344.951 186.375L349.779 182.805C348.698 181.344 347.569 179.89 346.423 178.479L341.757 182.262C342.849 183.604 343.924 184.989 344.951 186.375Z" fill="white" stroke="white" stroke-width="3"/>
<path d="M358.659 210.304L364.189 207.96C363.48 206.289 362.721 204.611 361.936 202.973L356.514 205.559C357.263 207.121 357.982 208.716 358.659 210.304Z" fill="white" stroke="white" stroke-width="3"/>
<path d="M326.031 166.294L329.894 161.697C328.501 160.528 327.065 159.378 325.622 158.271L321.965 163.031C323.34 164.084 324.707 165.183 326.031 166.294Z" fill="white" stroke="white" stroke-width="3"/>
<path d="M332.856 172.489L337.07 168.207C335.771 166.934 334.429 165.675 333.077 164.46L329.058 168.92C330.346 170.077 331.623 171.278 332.856 172.489Z" fill="white" stroke="white" stroke-width="3"/>
<path d="M322.237 155.765C320.754 154.709 319.231 153.675 317.705 152.684L314.435 157.718C315.885 158.659 317.336 159.646 318.743 160.652L322.237 155.765Z" fill="white" stroke="white" stroke-width="3"/>
<path d="M339.178 179.195L343.71 175.256C342.517 173.885 341.276 172.526 340.025 171.209L335.67 175.343C336.863 176.595 338.043 177.893 339.178 179.195Z" fill="white" stroke="white" stroke-width="3"/>
<path d="M282.809 239.67C283.666 238.896 283.945 237.666 283.5 236.599L280.747 229.962C280.306 228.895 279.239 228.222 278.085 228.28L270.728 228.656L268.435 226.367L268.811 219.017C268.873 217.863 268.197 216.8 267.13 216.359L260.482 213.61C259.415 213.165 258.185 213.444 257.411 214.301L252.474 219.762H249.233L244.296 214.301C243.522 213.444 242.292 213.165 241.225 213.61L234.578 216.359C233.511 216.8 232.838 217.863 232.896 219.017L233.272 226.367L230.979 228.656L223.622 228.28C222.468 228.222 221.405 228.895 220.96 229.962L218.207 236.599C217.766 237.666 218.041 238.896 218.902 239.67L224.371 244.6V247.837L218.902 252.767C218.041 253.541 217.766 254.77 218.207 255.837L220.96 262.474C221.405 263.541 222.468 264.218 223.622 264.156L230.979 263.78L233.272 266.069L232.896 273.419C232.838 274.569 233.511 275.636 234.578 276.077L241.225 278.826C242.292 279.271 243.522 278.993 244.296 278.135L249.233 272.674H252.474L257.411 278.135C257.939 278.721 258.681 279.036 259.44 279.036C259.791 279.036 260.145 278.967 260.482 278.826L267.13 276.077C268.197 275.636 268.873 274.573 268.811 273.419L268.435 266.069L270.728 263.78L278.085 264.156C279.239 264.218 280.306 263.541 280.747 262.474L283.5 255.837C283.945 254.77 283.666 253.541 282.809 252.767L277.34 247.837V244.6L282.809 239.67ZM272.779 251.074L277.716 255.526L276.44 258.611L269.795 258.271C269.021 258.232 268.269 258.521 267.723 259.067L263.715 263.071C263.169 263.617 262.88 264.37 262.92 265.14L263.26 271.777L260.171 273.054L255.715 268.12C255.194 267.549 254.46 267.22 253.686 267.22H248.018C247.244 267.22 246.51 267.549 245.992 268.12L241.533 273.054L238.444 271.777L238.784 265.14C238.824 264.37 238.534 263.617 237.988 263.071L233.981 259.067C233.435 258.521 232.682 258.232 231.912 258.271L225.264 258.611L223.987 255.526L228.924 251.074C229.499 250.557 229.825 249.822 229.825 249.052V243.388C229.825 242.618 229.499 241.88 228.924 241.362L223.987 236.91L225.264 233.828L231.912 234.165C232.682 234.205 233.435 233.915 233.981 233.369L237.988 229.365C238.534 228.823 238.824 228.07 238.784 227.3L238.444 220.663L241.533 219.383L245.992 224.316C246.51 224.891 247.244 225.217 248.018 225.217H253.686C254.46 225.217 255.194 224.891 255.715 224.316L260.171 219.383L263.26 220.663L262.92 227.3C262.88 228.07 263.169 228.823 263.715 229.365L267.723 233.369C268.269 233.915 269.021 234.205 269.792 234.165L276.44 233.828L277.716 236.91L272.779 241.362C272.204 241.88 271.879 242.618 271.879 243.388V249.052C271.879 249.822 272.204 250.557 272.779 251.074Z" fill="white" stroke="white" stroke-width="3"/>
<path d="M250.854 231.206C242.567 231.206 235.822 237.941 235.822 246.22C235.822 254.495 242.567 261.23 250.854 261.23C259.14 261.23 265.882 254.495 265.882 246.22C265.882 237.941 259.14 231.206 250.854 231.206ZM250.854 255.776C245.577 255.776 241.283 251.49 241.283 246.22C241.283 240.95 245.577 236.66 250.854 236.66C256.131 236.66 260.42 240.946 260.42 246.22C260.42 251.49 256.131 255.776 250.854 255.776Z" fill="white" stroke="white" stroke-width="3"/>
</svg>
