<svg width="500" height="500" viewBox="0 0 500 500" fill="none" xmlns="http://www.w3.org/2000/svg">
<path d="M270.936 123.719C270.593 123.39 270.202 123.139 269.76 122.963C269.322 122.788 268.862 122.704 268.388 122.711C267.913 122.719 267.46 122.817 267.022 123.007C266.588 123.197 266.204 123.46 265.876 123.799L247.943 142.298C247.618 142.63 247.37 143.013 247.195 143.444C247.023 143.871 246.936 144.32 246.936 144.784C246.936 145.248 247.023 145.697 247.195 146.124C247.37 146.555 247.618 146.938 247.943 147.27L265.876 165.769C266.204 166.108 266.588 166.375 267.022 166.561C267.46 166.751 267.913 166.849 268.388 166.857C268.862 166.864 269.322 166.78 269.76 166.605C270.202 166.433 270.593 166.181 270.936 165.849C271.275 165.521 271.542 165.137 271.728 164.703C271.918 164.268 272.016 163.812 272.024 163.341C272.031 162.866 271.947 162.406 271.776 161.968C271.6 161.527 271.348 161.136 271.016 160.796L255.497 144.784L271.016 128.772C271.348 128.432 271.6 128.042 271.776 127.6C271.947 127.162 272.031 126.702 272.024 126.231C272.016 125.756 271.918 125.3 271.728 124.865C271.542 124.431 271.275 124.048 270.936 123.719Z" fill="white" stroke="white" stroke-width="5"/>
<path d="M297.645 165.849C297.988 166.178 298.379 166.43 298.821 166.605C299.262 166.78 299.719 166.864 300.193 166.857C300.668 166.85 301.124 166.751 301.559 166.561C301.993 166.375 302.376 166.109 302.705 165.769L320.638 147.27C320.963 146.938 321.211 146.555 321.386 146.124C321.558 145.697 321.645 145.248 321.645 144.784C321.645 144.321 321.558 143.872 321.386 143.444C321.211 143.014 320.963 142.63 320.638 142.298L302.709 123.8C302.38 123.46 301.997 123.197 301.559 123.007C301.124 122.821 300.672 122.723 300.197 122.715C299.722 122.708 299.262 122.792 298.824 122.967C298.382 123.139 297.992 123.391 297.649 123.723C297.309 124.051 297.046 124.431 296.856 124.869C296.667 125.304 296.568 125.756 296.561 126.231C296.553 126.706 296.637 127.162 296.813 127.6C296.984 128.042 297.236 128.432 297.568 128.772L313.088 144.784L297.565 160.797C297.236 161.136 296.984 161.527 296.809 161.969C296.634 162.407 296.55 162.867 296.557 163.338C296.564 163.812 296.663 164.269 296.853 164.703C297.039 165.137 297.305 165.521 297.645 165.849Z" fill="white" stroke="white" stroke-width="5"/>
<path d="M291.756 115.275C291.296 115.158 290.832 115.132 290.362 115.202C289.894 115.271 289.456 115.428 289.047 115.669C288.638 115.914 288.295 116.224 288.01 116.604C287.726 116.983 287.528 117.403 287.412 117.863L274.229 169.953C274.108 170.413 274.083 170.88 274.148 171.351C274.218 171.822 274.371 172.264 274.612 172.673C274.857 173.081 275.171 173.432 275.55 173.717C275.934 174.001 276.353 174.202 276.817 174.319C277.277 174.436 277.744 174.458 278.215 174.388C278.686 174.319 279.128 174.162 279.537 173.917C279.946 173.669 280.289 173.355 280.574 172.972C280.855 172.589 281.056 172.169 281.169 171.705L294.352 119.616C294.465 119.156 294.491 118.692 294.421 118.221C294.352 117.754 294.198 117.316 293.954 116.907C293.709 116.501 293.399 116.155 293.019 115.874C292.64 115.589 292.216 115.392 291.756 115.275Z" fill="white" stroke="white" stroke-width="5"/>
<path d="M267.986 215.033H238.743C237.98 215.033 237.225 215.109 236.472 215.255C235.724 215.405 234.998 215.628 234.293 215.92C233.585 216.208 232.917 216.566 232.281 216.993C231.646 217.417 231.058 217.899 230.518 218.435C229.978 218.976 229.496 219.563 229.072 220.199C228.649 220.83 228.291 221.502 227.995 222.207C227.703 222.911 227.484 223.638 227.335 224.386C227.185 225.134 227.112 225.887 227.112 226.65C227.112 227.413 227.185 228.168 227.335 228.917C227.484 229.665 227.703 230.392 227.995 231.096C228.291 231.801 228.649 232.473 229.072 233.104C229.496 233.739 229.978 234.327 230.518 234.864C231.058 235.404 231.646 235.886 232.281 236.31C232.917 236.733 233.585 237.091 234.293 237.383C234.998 237.675 235.724 237.898 236.472 238.044C237.225 238.193 237.98 238.266 238.743 238.266H267.986C268.749 238.266 269.508 238.193 270.257 238.044C271.005 237.898 271.732 237.675 272.436 237.383C273.145 237.091 273.813 236.733 274.448 236.31C275.083 235.886 275.671 235.404 276.211 234.864C276.752 234.327 277.234 233.739 277.657 233.104C278.08 232.473 278.442 231.801 278.734 231.096C279.026 230.392 279.245 229.665 279.395 228.917C279.544 228.168 279.617 227.413 279.617 226.65C279.617 225.887 279.544 225.134 279.395 224.386C279.245 223.638 279.026 222.911 278.734 222.207C278.442 221.502 278.08 220.83 277.657 220.199C277.234 219.563 276.752 218.976 276.211 218.435C275.671 217.899 275.083 217.417 274.448 216.993C273.813 216.566 273.145 216.208 272.436 215.92C271.732 215.628 271.005 215.405 270.257 215.255C269.508 215.109 268.749 215.033 267.986 215.033ZM249.623 231.118H238.743C238.448 231.118 238.159 231.089 237.871 231.034C237.582 230.976 237.301 230.892 237.031 230.779C236.761 230.665 236.502 230.53 236.257 230.366C236.012 230.202 235.786 230.019 235.578 229.811C235.374 229.603 235.187 229.377 235.023 229.132C234.859 228.891 234.724 228.632 234.611 228.362C234.497 228.088 234.413 227.81 234.355 227.522C234.297 227.234 234.271 226.945 234.271 226.65C234.271 226.357 234.297 226.065 234.355 225.781C234.413 225.492 234.497 225.211 234.611 224.941C234.724 224.671 234.859 224.412 235.023 224.167C235.187 223.926 235.374 223.7 235.578 223.492C235.786 223.284 236.012 223.097 236.257 222.937C236.502 222.772 236.761 222.634 237.031 222.524C237.301 222.411 237.582 222.327 237.871 222.269C238.159 222.21 238.448 222.185 238.743 222.185H249.623V231.118ZM267.986 231.118H256.782V222.185H267.986C268.282 222.185 268.57 222.21 268.859 222.269C269.147 222.327 269.428 222.411 269.698 222.524C269.968 222.634 270.228 222.772 270.472 222.937C270.717 223.097 270.943 223.284 271.151 223.492C271.359 223.7 271.542 223.926 271.706 224.167C271.87 224.412 272.006 224.671 272.119 224.941C272.232 225.211 272.316 225.492 272.374 225.781C272.433 226.065 272.462 226.357 272.462 226.65C272.462 226.945 272.433 227.234 272.374 227.522C272.316 227.81 272.232 228.088 272.119 228.362C272.006 228.632 271.87 228.891 271.706 229.132C271.542 229.377 271.359 229.603 271.151 229.811C270.943 230.019 270.717 230.202 270.472 230.366C270.228 230.53 269.968 230.665 269.698 230.779C269.428 230.892 269.147 230.976 268.859 231.034C268.57 231.089 268.282 231.118 267.986 231.118Z" fill="white" stroke="white" stroke-width="5"/>
<path d="M353.809 274.391C354.743 274.391 355.671 274.299 356.591 274.117C357.507 273.934 358.398 273.664 359.263 273.306C360.124 272.949 360.946 272.511 361.724 271.992C362.501 271.474 363.22 270.882 363.885 270.222C364.546 269.561 365.137 268.842 365.655 268.064C366.174 267.29 366.616 266.469 366.973 265.607C367.331 264.742 367.601 263.851 367.784 262.935C367.966 262.018 368.058 261.095 368.058 260.16C368.058 259.225 367.966 258.302 367.784 257.385C367.601 256.469 367.331 255.578 366.973 254.713C366.616 253.851 366.174 253.03 365.655 252.252C365.137 251.478 364.546 250.759 363.885 250.098C363.224 249.438 362.501 248.846 361.724 248.328C360.946 247.809 360.124 247.371 359.263 247.013C358.398 246.656 357.507 246.386 356.591 246.203C355.671 246.02 354.747 245.929 353.809 245.929C352.874 245.929 351.947 246.02 351.03 246.203C350.114 246.386 349.223 246.656 348.358 247.013C347.493 247.371 346.671 247.809 345.894 248.328C345.116 248.846 344.397 249.438 343.736 250.098C343.075 250.759 342.484 251.478 341.965 252.252C341.443 253.03 341.005 253.851 340.648 254.713C340.29 255.578 340.02 256.465 339.837 257.382C339.655 258.298 339.563 259.225 339.563 260.16C339.563 261.095 339.658 262.018 339.841 262.935C340.023 263.851 340.293 264.738 340.651 265.603C341.009 266.465 341.451 267.286 341.969 268.06C342.488 268.838 343.079 269.557 343.74 270.218C344.401 270.875 345.12 271.466 345.897 271.985C346.675 272.503 347.496 272.945 348.362 273.303C349.223 273.661 350.114 273.931 351.03 274.113C351.947 274.296 352.874 274.387 353.809 274.391ZM353.809 253.077C354.276 253.077 354.736 253.125 355.192 253.216C355.649 253.304 356.094 253.439 356.521 253.618C356.952 253.797 357.361 254.012 357.748 254.271C358.135 254.53 358.493 254.823 358.821 255.151C359.15 255.48 359.445 255.837 359.705 256.224C359.964 256.611 360.179 257.02 360.358 257.451C360.537 257.878 360.672 258.32 360.763 258.776C360.855 259.233 360.898 259.693 360.898 260.16C360.898 260.624 360.855 261.084 360.763 261.54C360.672 261.996 360.537 262.438 360.358 262.869C360.183 263.3 359.964 263.705 359.705 264.092C359.445 264.479 359.153 264.837 358.821 265.165C358.493 265.494 358.135 265.789 357.748 266.045C357.361 266.304 356.952 266.523 356.525 266.702C356.094 266.877 355.649 267.013 355.192 267.104C354.736 267.195 354.276 267.239 353.809 267.239C353.345 267.239 352.885 267.195 352.429 267.104C351.972 267.013 351.527 266.877 351.096 266.702C350.669 266.523 350.26 266.304 349.873 266.045C349.486 265.789 349.128 265.494 348.796 265.165C348.468 264.837 348.175 264.479 347.916 264.092C347.657 263.705 347.438 263.3 347.259 262.869C347.084 262.438 346.949 261.996 346.858 261.54C346.766 261.084 346.722 260.624 346.722 260.16C346.722 259.696 346.766 259.236 346.858 258.78C346.949 258.324 347.084 257.882 347.263 257.451C347.442 257.024 347.661 256.615 347.92 256.228C348.175 255.841 348.471 255.483 348.8 255.155C349.128 254.826 349.486 254.534 349.873 254.275C350.26 254.016 350.669 253.8 351.1 253.621C351.527 253.443 351.972 253.307 352.429 253.216C352.885 253.125 353.345 253.081 353.809 253.077Z" fill="white" stroke="white" stroke-width="5"/>
<path d="M295.133 245.929C294.198 245.929 293.271 246.02 292.355 246.203C291.435 246.386 290.544 246.656 289.682 247.013C288.817 247.371 287.996 247.809 287.218 248.328C286.441 248.846 285.721 249.438 285.061 250.098C284.4 250.759 283.808 251.478 283.286 252.252C282.768 253.03 282.33 253.851 281.972 254.713C281.614 255.578 281.344 256.465 281.162 257.382C280.979 258.298 280.888 259.225 280.888 260.16C280.888 261.095 280.979 262.018 281.162 262.935C281.344 263.851 281.614 264.742 281.972 265.603C282.33 266.469 282.768 267.286 283.286 268.064C283.808 268.842 284.4 269.561 285.061 270.222C285.721 270.882 286.441 271.47 287.218 271.992C287.996 272.511 288.817 272.949 289.682 273.306C290.544 273.664 291.435 273.934 292.355 274.117C293.271 274.299 294.198 274.391 295.133 274.391C296.068 274.391 296.995 274.299 297.911 274.117C298.831 273.934 299.722 273.664 300.584 273.306C301.449 272.949 302.27 272.511 303.048 271.992C303.826 271.47 304.545 270.882 305.206 270.222C305.87 269.561 306.458 268.842 306.98 268.064C307.498 267.286 307.936 266.469 308.294 265.603C308.652 264.742 308.922 263.851 309.105 262.935C309.287 262.018 309.378 261.095 309.378 260.16C309.378 259.225 309.287 258.302 309.105 257.385C308.922 256.469 308.648 255.578 308.291 254.717C307.933 253.855 307.495 253.034 306.973 252.256C306.454 251.482 305.863 250.763 305.202 250.102C304.541 249.441 303.822 248.853 303.044 248.331C302.267 247.813 301.445 247.375 300.584 247.017C299.718 246.659 298.828 246.389 297.911 246.207C296.995 246.024 296.068 245.929 295.133 245.929ZM295.133 267.239C294.669 267.239 294.206 267.195 293.749 267.104C293.293 267.013 292.851 266.877 292.421 266.702C291.99 266.523 291.581 266.304 291.194 266.045C290.807 265.789 290.449 265.494 290.121 265.165C289.792 264.837 289.496 264.479 289.241 264.092C288.981 263.705 288.762 263.3 288.584 262.869C288.405 262.438 288.273 261.996 288.182 261.54C288.091 261.084 288.043 260.624 288.043 260.16C288.043 259.693 288.091 259.233 288.182 258.776C288.273 258.324 288.405 257.878 288.584 257.451C288.762 257.02 288.981 256.611 289.241 256.224C289.496 255.837 289.792 255.48 290.121 255.151C290.449 254.823 290.807 254.53 291.194 254.271C291.581 254.016 291.99 253.797 292.421 253.618C292.851 253.439 293.293 253.307 293.749 253.216C294.206 253.125 294.669 253.077 295.133 253.077C295.6 253.077 296.06 253.125 296.517 253.216C296.973 253.307 297.415 253.439 297.846 253.618C298.276 253.797 298.685 254.016 299.072 254.271C299.459 254.53 299.817 254.823 300.146 255.151C300.474 255.48 300.77 255.837 301.029 256.224C301.285 256.611 301.504 257.02 301.683 257.451C301.861 257.878 301.997 258.324 302.088 258.776C302.175 259.233 302.223 259.696 302.223 260.16C302.223 260.624 302.175 261.084 302.084 261.54C301.993 261.996 301.858 262.438 301.679 262.869C301.504 263.296 301.285 263.705 301.025 264.092C300.766 264.479 300.474 264.837 300.142 265.165C299.813 265.494 299.456 265.786 299.069 266.045C298.682 266.301 298.276 266.52 297.846 266.699C297.415 266.877 296.973 267.013 296.517 267.104C296.06 267.195 295.6 267.239 295.133 267.239Z" fill="white" stroke="white" stroke-width="5"/>
<path d="M338.72 289.461C338.72 288.527 338.629 287.603 338.446 286.687C338.264 285.77 337.993 284.88 337.636 284.018C337.278 283.153 336.84 282.331 336.318 281.557C335.799 280.78 335.208 280.06 334.547 279.4C333.886 278.739 333.167 278.147 332.39 277.629C331.612 277.111 330.79 276.673 329.925 276.315C329.06 275.957 328.169 275.687 327.253 275.504C326.337 275.322 325.409 275.23 324.475 275.23C323.536 275.23 322.613 275.322 321.693 275.504C320.776 275.687 319.886 275.957 319.02 276.315C318.155 276.673 317.337 277.111 316.56 277.629C315.778 278.147 315.059 278.739 314.398 279.4C313.738 280.06 313.146 280.78 312.628 281.557C312.109 282.331 311.668 283.153 311.31 284.018C310.952 284.88 310.682 285.77 310.499 286.687C310.317 287.603 310.226 288.527 310.226 289.461C310.226 290.396 310.317 291.32 310.499 292.236C310.682 293.152 310.952 294.043 311.31 294.908C311.668 295.77 312.109 296.591 312.628 297.365C313.146 298.143 313.738 298.862 314.398 299.523C315.059 300.184 315.778 300.775 316.56 301.293C317.337 301.812 318.155 302.25 319.02 302.608C319.886 302.966 320.776 303.236 321.693 303.418C322.613 303.601 323.536 303.692 324.475 303.692C325.409 303.688 326.333 303.597 327.253 303.415C328.169 303.232 329.06 302.962 329.922 302.604C330.787 302.246 331.608 301.808 332.386 301.29C333.16 300.768 333.883 300.18 334.543 299.519C335.204 298.858 335.796 298.139 336.314 297.362C336.833 296.588 337.271 295.766 337.632 294.905C337.99 294.043 338.26 293.152 338.443 292.236C338.625 291.32 338.72 290.396 338.72 289.461ZM317.385 289.461C317.385 288.998 317.429 288.538 317.52 288.081C317.611 287.625 317.746 287.183 317.925 286.752C318.1 286.322 318.319 285.913 318.579 285.529C318.838 285.142 319.13 284.785 319.462 284.456C319.791 284.127 320.148 283.832 320.535 283.573C320.922 283.317 321.331 283.098 321.758 282.919C322.189 282.744 322.635 282.609 323.091 282.517C323.547 282.426 324.007 282.382 324.475 282.382C324.938 282.382 325.398 282.426 325.855 282.517C326.311 282.609 326.756 282.744 327.187 282.919C327.614 283.098 328.023 283.317 328.41 283.573C328.797 283.832 329.155 284.127 329.487 284.456C329.816 284.785 330.108 285.142 330.367 285.529C330.626 285.913 330.845 286.322 331.024 286.752C331.199 287.183 331.334 287.625 331.426 288.081C331.517 288.538 331.561 288.998 331.561 289.461C331.561 289.925 331.517 290.389 331.426 290.841C331.334 291.298 331.199 291.743 331.024 292.17C330.845 292.601 330.626 293.01 330.367 293.397C330.108 293.78 329.816 294.138 329.487 294.466C329.155 294.799 328.797 295.091 328.41 295.35C328.023 295.606 327.614 295.825 327.187 296.003C326.756 296.182 326.311 296.314 325.855 296.405C325.398 296.496 324.938 296.544 324.475 296.544C324.007 296.54 323.547 296.496 323.091 296.405C322.635 296.314 322.189 296.179 321.762 296C321.331 295.825 320.922 295.606 320.535 295.346C320.148 295.087 319.791 294.795 319.462 294.466C319.134 294.138 318.838 293.78 318.579 293.393C318.319 293.006 318.104 292.601 317.925 292.17C317.746 291.739 317.611 291.298 317.52 290.841C317.429 290.385 317.381 289.925 317.381 289.461H317.385Z" fill="white" stroke="white" stroke-width="5"/>
<path d="M324.475 245.086C325.409 245.086 326.337 244.995 327.253 244.812C328.169 244.629 329.06 244.363 329.925 244.005C330.79 243.647 331.608 243.206 332.386 242.687C333.163 242.169 333.883 241.577 334.547 240.917C335.208 240.256 335.799 239.54 336.318 238.763C336.836 237.985 337.274 237.164 337.632 236.302C337.99 235.437 338.26 234.55 338.443 233.633C338.625 232.717 338.716 231.79 338.716 230.855C338.716 229.92 338.625 228.997 338.443 228.08C338.26 227.164 337.99 226.273 337.632 225.412C337.274 224.546 336.836 223.729 336.314 222.951C335.796 222.173 335.204 221.454 334.543 220.797C333.883 220.136 333.163 219.545 332.386 219.026C331.608 218.508 330.787 218.07 329.922 217.712C329.056 217.354 328.166 217.084 327.249 216.902C326.333 216.719 325.406 216.628 324.471 216.628C323.533 216.628 322.609 216.719 321.689 216.902C320.773 217.084 319.882 217.354 319.017 217.712C318.155 218.07 317.334 218.508 316.556 219.026C315.778 219.545 315.059 220.136 314.395 220.797C313.734 221.458 313.146 222.177 312.624 222.951C312.106 223.729 311.668 224.55 311.31 225.412C310.952 226.277 310.682 227.164 310.499 228.08C310.317 228.997 310.226 229.924 310.226 230.859C310.226 231.793 310.317 232.717 310.499 233.633C310.686 234.55 310.956 235.437 311.314 236.302C311.671 237.164 312.109 237.985 312.631 238.759C313.15 239.537 313.741 240.256 314.402 240.917C315.063 241.577 315.782 242.165 316.56 242.684C317.337 243.206 318.159 243.644 319.024 244.002C319.886 244.359 320.776 244.629 321.693 244.812C322.613 244.995 323.536 245.086 324.475 245.086ZM324.475 223.776C324.938 223.776 325.398 223.824 325.855 223.915C326.311 224.006 326.756 224.138 327.187 224.316C327.614 224.495 328.023 224.714 328.41 224.974C328.797 225.229 329.155 225.525 329.484 225.853C329.812 226.182 330.108 226.54 330.367 226.927C330.626 227.314 330.842 227.719 331.02 228.15C331.199 228.581 331.334 229.022 331.422 229.479C331.513 229.935 331.561 230.395 331.561 230.859C331.561 231.326 331.513 231.786 331.422 232.242C331.331 232.695 331.199 233.14 331.02 233.568C330.842 233.998 330.623 234.407 330.363 234.794C330.104 235.178 329.812 235.535 329.484 235.864C329.155 236.193 328.794 236.488 328.407 236.747C328.02 237.003 327.614 237.222 327.184 237.401C326.753 237.576 326.311 237.711 325.851 237.803C325.395 237.894 324.935 237.938 324.471 237.938C324.004 237.938 323.544 237.894 323.087 237.803C322.631 237.711 322.186 237.576 321.758 237.401C321.328 237.222 320.919 237.003 320.532 236.744C320.145 236.488 319.787 236.193 319.458 235.864C319.13 235.535 318.834 235.178 318.575 234.791C318.319 234.404 318.1 233.998 317.921 233.568C317.743 233.137 317.607 232.695 317.516 232.239C317.429 231.782 317.381 231.322 317.381 230.859C317.381 230.391 317.429 229.931 317.52 229.479C317.611 229.022 317.746 228.577 317.925 228.15C318.104 227.719 318.319 227.314 318.579 226.927C318.838 226.54 319.134 226.182 319.462 225.853C319.791 225.525 320.148 225.229 320.535 224.974C320.922 224.714 321.331 224.495 321.762 224.316C322.189 224.141 322.635 224.006 323.091 223.915C323.547 223.824 324.007 223.776 324.475 223.776Z" fill="white" stroke="white" stroke-width="5"/>
<path d="M318.042 260.16C318.042 260.58 318.086 261 318.166 261.412C318.25 261.825 318.37 262.226 318.531 262.617C318.695 263.008 318.892 263.376 319.126 263.727C319.36 264.077 319.626 264.402 319.926 264.702C320.225 264.997 320.55 265.264 320.9 265.501C321.251 265.735 321.623 265.932 322.01 266.093C322.401 266.253 322.802 266.377 323.219 266.458C323.631 266.542 324.051 266.582 324.471 266.582C324.894 266.582 325.314 266.542 325.727 266.458C326.139 266.377 326.544 266.253 326.931 266.093C327.322 265.932 327.694 265.735 328.045 265.501C328.395 265.267 328.72 265.001 329.02 264.702C329.319 264.402 329.586 264.077 329.819 263.727C330.053 263.376 330.25 263.008 330.414 262.617C330.575 262.23 330.695 261.828 330.779 261.412C330.86 261 330.903 260.584 330.903 260.16C330.903 259.74 330.863 259.32 330.779 258.908C330.695 258.495 330.575 258.094 330.414 257.703C330.25 257.312 330.053 256.944 329.819 256.593C329.586 256.243 329.319 255.918 329.02 255.618C328.72 255.319 328.395 255.056 328.045 254.819C327.694 254.585 327.322 254.388 326.935 254.227C326.544 254.067 326.143 253.943 325.727 253.862C325.314 253.778 324.894 253.738 324.474 253.738C324.051 253.738 323.631 253.778 323.219 253.862C322.806 253.946 322.404 254.067 322.014 254.227C321.623 254.392 321.254 254.589 320.904 254.823C320.55 255.056 320.229 255.323 319.929 255.622C319.63 255.918 319.363 256.243 319.13 256.593C318.896 256.944 318.695 257.312 318.535 257.703C318.374 258.094 318.25 258.495 318.17 258.908C318.086 259.32 318.042 259.737 318.042 260.16ZM325.201 260.16C325.201 260.361 325.128 260.532 324.986 260.675C324.847 260.817 324.675 260.887 324.474 260.887C324.274 260.887 324.102 260.817 323.96 260.675C323.817 260.532 323.744 260.361 323.744 260.16C323.744 259.959 323.817 259.788 323.96 259.645C324.102 259.503 324.274 259.434 324.474 259.434C324.675 259.434 324.847 259.503 324.986 259.645C325.128 259.788 325.201 259.959 325.201 260.16Z" fill="white" stroke="white" stroke-width="5"/>
<path d="M196.956 249.588H186.993V239.621C186.978 239.132 186.872 238.661 186.679 238.208C186.482 237.759 186.212 237.361 185.865 237.014C185.518 236.667 185.116 236.394 184.667 236.2C184.215 236.007 183.744 235.901 183.254 235.886H169.531C167.556 235.886 166.118 237.646 166.118 239.621V249.588H155.83C155.355 249.606 154.902 249.715 154.472 249.916C154.041 250.117 153.665 250.391 153.344 250.738C153.022 251.088 152.778 251.486 152.617 251.931C152.453 252.373 152.38 252.833 152.398 253.308V267.009C152.391 267.236 152.409 267.462 152.449 267.685C152.486 267.911 152.548 268.126 152.632 268.338C152.716 268.55 152.818 268.751 152.946 268.94C153.07 269.13 153.212 269.306 153.373 269.466C153.533 269.627 153.709 269.769 153.898 269.893C154.088 270.017 154.289 270.123 154.501 270.207C154.709 270.291 154.928 270.35 155.151 270.39C155.377 270.43 155.6 270.445 155.83 270.437H166.118V280.7C166.11 280.926 166.125 281.149 166.165 281.375C166.202 281.598 166.264 281.817 166.344 282.029C166.428 282.237 166.53 282.437 166.654 282.631C166.778 282.821 166.921 282.996 167.081 283.157C167.242 283.317 167.414 283.46 167.604 283.587C167.793 283.712 167.994 283.817 168.206 283.901C168.414 283.985 168.633 284.047 168.856 284.091C169.078 284.131 169.305 284.146 169.531 284.142H183.254C183.729 284.157 184.193 284.084 184.638 283.92C185.084 283.755 185.485 283.511 185.836 283.19C186.186 282.868 186.46 282.489 186.661 282.058C186.861 281.627 186.975 281.174 186.993 280.7V270.437H196.956C198.931 270.437 200.713 268.988 200.713 267.013V253.311C200.694 252.819 200.588 252.348 200.391 251.899C200.194 251.45 199.92 251.052 199.574 250.705C199.223 250.358 198.821 250.091 198.372 249.898C197.92 249.704 197.445 249.602 196.956 249.588ZM193.557 263.289H183.254C182.78 263.311 182.327 263.42 181.9 263.621C181.469 263.822 181.093 264.096 180.772 264.443C180.454 264.793 180.213 265.191 180.049 265.637C179.888 266.082 179.815 266.538 179.837 267.013V276.99H173.277V267.013C173.259 266.524 173.153 266.053 172.959 265.604C172.762 265.155 172.492 264.757 172.145 264.41C171.795 264.063 171.397 263.793 170.944 263.599C170.495 263.406 170.024 263.304 169.531 263.289H159.557V256.736H169.531C171.506 256.736 173.277 255.283 173.277 253.308V243.034H179.837V253.308C179.83 253.534 179.845 253.76 179.881 253.983C179.921 254.206 179.983 254.425 180.064 254.633C180.148 254.845 180.25 255.046 180.374 255.235C180.498 255.425 180.641 255.6 180.801 255.761C180.962 255.922 181.137 256.064 181.327 256.188C181.517 256.312 181.714 256.418 181.926 256.502C182.137 256.586 182.353 256.648 182.579 256.688C182.802 256.729 183.024 256.743 183.254 256.736H193.557V263.289Z" fill="white" stroke="white" stroke-width="5"/>
<path d="M176.391 217.862C175.004 217.862 173.62 217.932 172.24 218.067C170.86 218.202 169.491 218.406 168.129 218.676C166.771 218.947 165.424 219.282 164.099 219.684C162.77 220.086 161.467 220.553 160.185 221.082C158.904 221.612 157.652 222.203 156.429 222.857C155.206 223.51 154.015 224.222 152.865 224.992C151.712 225.759 150.598 226.584 149.525 227.464C148.455 228.344 147.426 229.271 146.447 230.249C145.465 231.231 144.534 232.257 143.655 233.327C142.775 234.397 141.95 235.51 141.179 236.66C140.409 237.814 139.697 239 139.044 240.22C138.39 241.443 137.799 242.695 137.266 243.973C136.736 245.254 136.269 246.558 135.867 247.883C135.462 249.208 135.126 250.551 134.856 251.91C134.586 253.268 134.382 254.637 134.246 256.013C134.111 257.393 134.042 258.777 134.042 260.16C134.042 261.544 134.111 262.928 134.246 264.308C134.382 265.684 134.586 267.053 134.856 268.411C135.126 269.773 135.462 271.113 135.867 272.438C136.269 273.763 136.736 275.067 137.266 276.348C137.799 277.626 138.39 278.878 139.044 280.101C139.697 281.32 140.409 282.507 141.179 283.66C141.95 284.81 142.775 285.924 143.655 286.994C144.534 288.063 145.465 289.089 146.447 290.071C147.426 291.05 148.455 291.977 149.525 292.857C150.598 293.737 151.712 294.562 152.865 295.328C154.015 296.099 155.206 296.811 156.429 297.464C157.652 298.118 158.904 298.709 160.185 299.238C161.467 299.768 162.77 300.235 164.099 300.637C165.424 301.038 166.771 301.374 168.129 301.644C169.491 301.918 170.86 302.119 172.24 302.254C173.62 302.393 175.004 302.458 176.391 302.458C177.778 302.458 179.162 302.393 180.542 302.254C181.922 302.119 183.295 301.918 184.653 301.644C186.015 301.374 187.358 301.038 188.683 300.637C190.012 300.235 191.316 299.768 192.597 299.238C193.878 298.709 195.131 298.118 196.354 297.464C197.577 296.811 198.767 296.099 199.92 295.328C201.074 294.562 202.184 293.737 203.257 292.857C204.331 291.977 205.357 291.05 206.339 290.071C207.317 289.089 208.248 288.063 209.128 286.994C210.008 285.924 210.833 284.81 211.603 283.66C212.373 282.507 213.085 281.32 213.739 280.101C214.392 278.878 214.987 277.626 215.517 276.348C216.05 275.067 216.513 273.763 216.919 272.438C217.32 271.113 217.656 269.773 217.926 268.411C218.196 267.053 218.401 265.684 218.536 264.308C218.675 262.928 218.74 261.544 218.74 260.16C218.74 258.777 218.671 257.393 218.532 256.017C218.393 254.637 218.189 253.271 217.919 251.913C217.649 250.555 217.309 249.212 216.908 247.886C216.502 246.561 216.035 245.261 215.506 243.98C214.973 242.702 214.381 241.45 213.728 240.231C213.071 239.008 212.359 237.825 211.588 236.671C210.818 235.521 209.993 234.411 209.113 233.338C208.233 232.268 207.302 231.242 206.324 230.264C205.342 229.286 204.316 228.358 203.246 227.478C202.173 226.599 201.06 225.774 199.91 225.007C198.756 224.237 197.569 223.525 196.346 222.871C195.123 222.218 193.871 221.626 192.59 221.093C191.308 220.564 190.005 220.097 188.68 219.695C187.354 219.29 186.011 218.954 184.649 218.684C183.291 218.41 181.922 218.205 180.542 218.07C179.162 217.932 177.778 217.862 176.391 217.862ZM176.391 295.31C175.238 295.31 174.091 295.252 172.941 295.142C171.795 295.029 170.656 294.857 169.528 294.635C168.396 294.408 167.279 294.131 166.176 293.795C165.074 293.463 163.989 293.076 162.923 292.634C161.861 292.192 160.821 291.703 159.802 291.159C158.787 290.615 157.798 290.024 156.841 289.385C155.881 288.746 154.957 288.063 154.067 287.33C153.176 286.599 152.321 285.829 151.507 285.015C150.693 284.201 149.919 283.35 149.189 282.459C148.459 281.569 147.773 280.645 147.13 279.688C146.491 278.732 145.9 277.746 145.356 276.731C144.812 275.713 144.319 274.676 143.881 273.61C143.439 272.547 143.052 271.467 142.716 270.364C142.38 269.262 142.103 268.148 141.877 267.017C141.65 265.888 141.482 264.753 141.369 263.607C141.256 262.46 141.201 261.31 141.201 260.16C141.201 259.01 141.256 257.86 141.369 256.714C141.482 255.571 141.65 254.432 141.877 253.304C142.103 252.172 142.38 251.059 142.716 249.956C143.052 248.854 143.439 247.773 143.881 246.711C144.319 245.645 144.812 244.608 145.356 243.589C145.9 242.575 146.491 241.589 147.13 240.632C147.773 239.676 148.459 238.752 149.189 237.861C149.919 236.971 150.693 236.12 151.507 235.306C152.321 234.492 153.176 233.721 154.067 232.991C154.957 232.261 155.881 231.575 156.841 230.936C157.798 230.297 158.787 229.705 159.802 229.161C160.821 228.618 161.861 228.128 162.923 227.687C163.989 227.245 165.074 226.858 166.176 226.526C167.279 226.19 168.396 225.912 169.528 225.686C170.656 225.463 171.795 225.292 172.941 225.182C174.091 225.069 175.238 225.011 176.391 225.011C177.545 225.011 178.695 225.069 179.841 225.182C180.987 225.292 182.127 225.463 183.258 225.686C184.386 225.912 185.504 226.19 186.606 226.526C187.709 226.858 188.793 227.245 189.859 227.687C190.925 228.128 191.965 228.618 192.98 229.161C193.999 229.705 194.985 230.297 195.945 230.936C196.901 231.575 197.825 232.261 198.716 232.991C199.607 233.721 200.461 234.492 201.275 235.306C202.089 236.12 202.863 236.971 203.597 237.861C204.327 238.752 205.013 239.676 205.652 240.632C206.291 241.589 206.886 242.575 207.427 243.589C207.97 244.608 208.463 245.645 208.905 246.711C209.347 247.773 209.734 248.854 210.066 249.956C210.402 251.059 210.683 252.172 210.906 253.304C211.132 254.432 211.3 255.571 211.413 256.714C211.526 257.86 211.585 259.01 211.585 260.16C211.581 261.31 211.523 262.46 211.41 263.603C211.296 264.749 211.125 265.885 210.902 267.017C210.676 268.145 210.395 269.258 210.059 270.361C209.723 271.46 209.336 272.544 208.894 273.606C208.452 274.669 207.96 275.705 207.416 276.72C206.872 277.735 206.28 278.721 205.641 279.677C204.999 280.634 204.312 281.558 203.582 282.448C202.852 283.339 202.078 284.19 201.264 285.004C200.45 285.818 199.596 286.588 198.705 287.319C197.814 288.049 196.89 288.735 195.934 289.374C194.977 290.013 193.988 290.604 192.973 291.148C191.958 291.689 190.918 292.181 189.852 292.623C188.789 293.065 187.705 293.452 186.602 293.788C185.5 294.12 184.383 294.401 183.255 294.627C182.123 294.854 180.987 295.022 179.841 295.135C178.695 295.252 177.545 295.307 176.391 295.31Z" fill="white" stroke="white" stroke-width="5"/>
<mask id="mask0_75_281" style="mask-type:luminance" maskUnits="userSpaceOnUse" x="102" y="97" width="297" height="306">
<path d="M105 100H395.661V400H105V100Z" fill="white" stroke="white" stroke-width="5"/>
</mask>
<g mask="url(#mask0_75_281)">
<path d="M394.438 350.864L384.869 286.358C385.413 285.113 385.917 283.85 386.381 282.572C386.848 281.294 387.272 280.006 387.655 278.699C388.042 277.395 388.385 276.081 388.688 274.756C388.991 273.431 389.254 272.098 389.473 270.758C389.696 269.415 389.875 268.071 390.01 266.717C390.148 265.366 390.243 264.012 390.298 262.654C390.349 261.295 390.36 259.934 390.331 258.576C390.298 257.218 390.225 255.859 390.112 254.505C389.995 253.151 389.838 251.803 389.641 250.456C389.444 249.113 389.203 247.777 388.922 246.448C388.641 245.115 388.319 243.797 387.954 242.487C387.593 241.176 387.188 239.88 386.746 238.595C386.301 237.31 385.819 236.039 385.297 234.783C384.774 233.528 384.212 232.29 383.614 231.071C383.015 229.851 382.38 228.65 381.704 227.467C381.032 226.288 380.321 225.127 379.576 223.992C378.831 222.853 378.053 221.739 377.239 220.651C376.425 219.563 375.578 218.497 374.695 217.46C373.815 216.424 372.906 215.416 371.964 214.438C371.018 213.456 370.047 212.506 369.047 211.586C368.047 210.666 367.017 209.776 365.958 208.918C364.903 208.063 363.823 207.238 362.713 206.45C361.607 205.661 360.475 204.905 359.321 204.186C358.168 203.463 356.992 202.781 355.795 202.134C354.597 201.488 353.381 200.879 352.147 200.305C350.913 199.732 349.661 199.199 348.394 198.703C347.128 198.21 345.846 197.753 344.55 197.337C343.254 196.921 341.947 196.549 340.629 196.213C339.311 195.877 337.982 195.585 336.646 195.333C335.306 195.077 333.963 194.866 332.612 194.698C331.265 194.53 329.91 194.402 328.552 194.314C327.194 194.227 325.833 194.183 324.474 194.183H306.549C306.98 192.427 307.736 190.824 308.813 189.375C310.653 187.024 313.372 185.841 317.129 185.841H327.669C328.18 185.841 328.695 185.819 329.206 185.768C329.717 185.717 330.224 185.644 330.728 185.542C331.228 185.443 331.729 185.319 332.218 185.169C332.711 185.02 333.193 184.848 333.667 184.651C334.142 184.454 334.605 184.235 335.058 183.99C335.511 183.749 335.949 183.486 336.376 183.198C336.803 182.913 337.212 182.606 337.61 182.278C338.004 181.953 338.384 181.606 338.745 181.245C339.107 180.88 339.45 180.5 339.775 180.102C340.1 179.704 340.403 179.291 340.684 178.861C340.969 178.433 341.228 177.995 341.469 177.539C341.71 177.086 341.925 176.623 342.119 176.148C342.312 175.673 342.484 175.188 342.63 174.695C342.772 174.206 342.896 173.706 342.991 173.202C343.086 172.698 343.159 172.191 343.207 171.68C343.25 171.172 343.272 170.657 343.269 170.146V115.826C343.272 115.315 343.254 114.8 343.207 114.289C343.159 113.778 343.09 113.271 342.995 112.763C342.896 112.259 342.776 111.759 342.63 111.266C342.487 110.773 342.316 110.288 342.122 109.813C341.929 109.339 341.713 108.871 341.476 108.415C341.235 107.962 340.976 107.521 340.691 107.09C340.41 106.659 340.103 106.246 339.782 105.848C339.457 105.447 339.114 105.064 338.753 104.698C338.391 104.333 338.012 103.987 337.617 103.658C337.223 103.329 336.81 103.023 336.383 102.734C335.956 102.446 335.518 102.179 335.065 101.935C334.613 101.69 334.149 101.471 333.674 101.27C333.2 101.073 332.718 100.898 332.225 100.745C331.732 100.595 331.236 100.467 330.732 100.365C330.228 100.263 329.721 100.186 329.206 100.135C328.695 100.08 328.184 100.055 327.669 100.055H240.915C240.397 100.055 239.882 100.08 239.371 100.131C238.856 100.182 238.345 100.259 237.838 100.361C237.334 100.464 236.834 100.588 236.337 100.737C235.844 100.891 235.359 101.062 234.88 101.263C234.406 101.46 233.938 101.679 233.482 101.924C233.029 102.168 232.588 102.435 232.157 102.72C231.73 103.008 231.314 103.315 230.916 103.643C230.518 103.972 230.134 104.319 229.769 104.684C229.404 105.049 229.061 105.432 228.732 105.83C228.408 106.228 228.097 106.644 227.812 107.075C227.528 107.502 227.261 107.944 227.02 108.4C226.776 108.857 226.557 109.32 226.359 109.799C226.162 110.277 225.991 110.762 225.841 111.255C225.691 111.748 225.567 112.248 225.465 112.756C225.366 113.26 225.293 113.771 225.242 114.285C225.191 114.797 225.166 115.311 225.169 115.83V170.175C225.169 170.687 225.191 171.201 225.242 171.712C225.293 172.224 225.366 172.731 225.469 173.235C225.567 173.742 225.695 174.239 225.841 174.732C225.991 175.224 226.166 175.706 226.363 176.181C226.56 176.656 226.779 177.119 227.024 177.576C227.265 178.028 227.531 178.466 227.816 178.893C228.101 179.321 228.408 179.733 228.736 180.131C229.065 180.529 229.408 180.909 229.773 181.27C230.138 181.635 230.518 181.978 230.919 182.303C231.317 182.628 231.73 182.935 232.157 183.22C232.588 183.504 233.029 183.767 233.482 184.008C233.938 184.249 234.402 184.468 234.877 184.665C235.355 184.859 235.841 185.03 236.333 185.18C236.826 185.33 237.323 185.45 237.83 185.549C238.334 185.647 238.841 185.724 239.356 185.772C239.867 185.819 240.382 185.845 240.897 185.841H280.464C280.435 188.681 280.716 191.489 281.304 194.267L175.942 194.282C174.577 194.285 173.211 194.333 171.846 194.42C170.484 194.508 169.122 194.639 167.768 194.811C166.413 194.986 165.066 195.198 163.723 195.457C162.379 195.713 161.047 196.008 159.725 196.348C158.4 196.687 157.089 197.067 155.79 197.487C154.49 197.907 153.201 198.367 151.931 198.867C150.66 199.367 149.404 199.907 148.167 200.484C146.929 201.061 145.71 201.678 144.512 202.332C143.311 202.985 142.132 203.675 140.978 204.402C139.821 205.128 138.686 205.891 137.58 206.687C136.47 207.483 135.385 208.312 134.327 209.177C133.268 210.042 132.238 210.936 131.238 211.864C130.234 212.791 129.263 213.751 128.321 214.737C127.379 215.726 126.467 216.745 125.587 217.789C124.707 218.833 123.864 219.903 123.049 221.002C122.235 222.097 121.458 223.218 120.717 224.364C119.972 225.51 119.267 226.675 118.595 227.865C117.924 229.055 117.292 230.264 116.697 231.49C116.102 232.721 115.543 233.966 115.029 235.229C114.51 236.492 114.032 237.77 113.594 239.062C113.152 240.355 112.754 241.662 112.4 242.976C112.042 244.294 111.725 245.623 111.451 246.959C111.177 248.295 110.943 249.639 110.75 250.989C110.56 252.344 110.41 253.698 110.304 255.06C110.195 256.418 110.133 257.783 110.111 259.145C110.085 260.511 110.107 261.876 110.169 263.238C110.231 264.603 110.337 265.961 110.483 267.319C110.629 268.674 110.819 270.025 111.053 271.372C111.283 272.715 111.553 274.055 111.867 275.38C112.185 276.709 112.539 278.027 112.933 279.334C113.331 280.641 113.765 281.933 114.244 283.211C114.718 284.489 115.233 285.752 115.788 287.001L106.099 352.364C105.927 353.522 105.807 354.69 105.734 355.858C105.664 357.03 105.646 358.202 105.679 359.374C105.712 360.546 105.796 361.714 105.927 362.879C106.062 364.043 106.248 365.201 106.482 366.351C106.719 367.501 107.004 368.636 107.336 369.76C107.672 370.885 108.056 371.991 108.486 373.083C108.917 374.174 109.395 375.244 109.917 376.292C110.443 377.339 111.013 378.365 111.626 379.366C112.239 380.366 112.897 381.337 113.594 382.279C114.291 383.221 115.032 384.134 115.81 385.01C116.587 385.89 117.402 386.733 118.252 387.54C119.103 388.347 119.99 389.117 120.906 389.847C121.826 390.577 122.776 391.264 123.754 391.913C124.732 392.56 125.736 393.166 126.77 393.724C127.799 394.286 128.854 394.801 129.931 395.269C131.004 395.736 132.1 396.159 133.213 396.532C134.327 396.904 135.455 397.229 136.594 397.503C137.737 397.78 138.887 398.007 140.047 398.178C141.208 398.353 142.377 398.478 143.549 398.554C144.72 398.627 145.892 398.649 147.064 398.62C148.24 398.591 149.412 398.514 150.576 398.383C151.745 398.251 152.902 398.072 154.052 397.839C155.206 397.609 156.345 397.328 157.469 396.995C158.597 396.667 159.707 396.287 160.799 395.86C161.894 395.433 162.967 394.962 164.019 394.44C165.07 393.918 166.1 393.355 167.1 392.746C168.104 392.136 169.079 391.483 170.024 390.789C170.97 390.092 171.882 389.358 172.766 388.584C173.649 387.81 174.493 386.999 175.307 386.152C176.117 385.302 176.888 384.422 177.621 383.506C178.359 382.593 179.049 381.647 179.702 380.673C180.352 379.694 180.962 378.694 181.528 377.664L218.142 310.873C222.617 307.12 226.535 302.852 229.89 298.074C231.003 296.485 232.288 295.047 233.745 293.766C235.202 292.488 236.79 291.396 238.509 290.494C240.225 289.593 242.029 288.906 243.912 288.439C245.793 287.968 247.706 287.727 249.648 287.716H250.966C252.901 287.727 254.806 287.964 256.687 288.428C258.563 288.895 260.359 289.574 262.075 290.473C263.787 291.367 265.375 292.451 266.828 293.722C268.285 294.996 269.57 296.423 270.684 298.004C274.046 302.772 277.974 307.018 282.468 310.745L318.633 378.113C319.506 379.694 320.48 381.213 321.557 382.662C322.631 384.112 323.799 385.488 325.059 386.78C326.314 388.076 327.654 389.285 329.074 390.398C330.495 391.515 331.984 392.534 333.539 393.454C335.095 394.37 336.708 395.181 338.369 395.885C340.034 396.59 341.739 397.178 343.484 397.656C345.226 398.131 346.992 398.489 348.785 398.729C350.578 398.97 352.377 399.091 354.185 399.091C358.193 399.095 362.114 398.507 365.947 397.335C385.191 391.435 396.913 372.371 394.453 350.981C394.449 350.944 394.445 350.908 394.438 350.864ZM240.908 178.693H240.901C240.335 178.696 239.776 178.645 239.225 178.539C238.67 178.43 238.133 178.273 237.611 178.057C237.093 177.846 236.596 177.583 236.129 177.273C235.658 176.959 235.224 176.604 234.826 176.207C234.428 175.809 234.07 175.378 233.76 174.91C233.446 174.44 233.183 173.947 232.967 173.428C232.752 172.906 232.591 172.37 232.482 171.818C232.376 171.267 232.321 170.708 232.325 170.146V115.83C232.325 115.264 232.376 114.705 232.485 114.15C232.595 113.595 232.756 113.055 232.971 112.533C233.183 112.011 233.449 111.515 233.76 111.044C234.074 110.573 234.431 110.138 234.829 109.737C235.227 109.335 235.662 108.977 236.133 108.663C236.6 108.349 237.096 108.083 237.618 107.864C238.141 107.648 238.681 107.484 239.236 107.371C239.791 107.261 240.349 107.203 240.915 107.203H327.669C328.231 107.207 328.786 107.261 329.337 107.375C329.885 107.488 330.422 107.656 330.936 107.875C331.455 108.094 331.944 108.36 332.408 108.678C332.875 108.992 333.302 109.35 333.696 109.751C334.087 110.153 334.437 110.591 334.744 111.062C335.047 111.529 335.306 112.026 335.514 112.548C335.719 113.07 335.876 113.606 335.974 114.158C336.077 114.713 336.12 115.268 336.109 115.83V170.146C336.12 170.705 336.073 171.26 335.974 171.807C335.872 172.359 335.715 172.892 335.507 173.41C335.299 173.932 335.043 174.425 334.737 174.892C334.43 175.36 334.08 175.794 333.685 176.192C333.295 176.59 332.864 176.944 332.4 177.258C331.937 177.568 331.447 177.831 330.929 178.047C330.414 178.262 329.881 178.423 329.33 178.532C328.782 178.642 328.227 178.696 327.669 178.693H317.129C311.109 178.693 306.414 180.832 303.172 184.972C298.163 191.368 298.141 201.295 298.86 207.95C297.776 207.26 296.747 206.486 295.779 205.639C290.018 200.557 287.284 193.486 287.656 184.611C287.671 184.249 287.656 183.888 287.601 183.53C287.55 183.169 287.463 182.818 287.342 182.475C287.222 182.132 287.068 181.807 286.882 181.493C286.7 181.179 286.484 180.887 286.243 180.617C286.002 180.343 285.74 180.098 285.447 179.879C285.159 179.657 284.852 179.467 284.527 179.306C284.199 179.145 283.863 179.018 283.513 178.923C283.158 178.828 282.804 178.766 282.439 178.74C282.344 178.737 282.249 178.693 282.122 178.693H240.908ZM175.248 374.233C174.785 375.08 174.285 375.905 173.748 376.708C173.211 377.511 172.642 378.289 172.039 379.041C171.433 379.796 170.798 380.519 170.13 381.22C169.462 381.918 168.768 382.586 168.042 383.221C167.315 383.86 166.563 384.466 165.786 385.035C165.008 385.609 164.205 386.145 163.38 386.649C162.555 387.149 161.708 387.616 160.842 388.044C159.977 388.471 159.094 388.861 158.196 389.215C157.294 389.566 156.381 389.876 155.454 390.15C154.526 390.42 153.588 390.654 152.643 390.844C151.693 391.034 150.741 391.183 149.78 391.289C148.82 391.399 147.857 391.464 146.889 391.486C145.925 391.512 144.958 391.494 143.994 391.432C143.03 391.373 142.07 391.271 141.113 391.125C140.161 390.982 139.211 390.796 138.273 390.57C137.331 390.344 136.404 390.077 135.488 389.77C134.571 389.46 133.673 389.113 132.786 388.73C131.899 388.343 131.034 387.919 130.183 387.459C129.336 386.996 128.507 386.499 127.704 385.966C126.897 385.433 126.116 384.867 125.36 384.265C124.605 383.663 123.874 383.031 123.174 382.367C122.473 381.702 121.804 381.009 121.162 380.286C120.523 379.563 119.917 378.811 119.34 378.037C118.767 377.259 118.227 376.46 117.723 375.638C117.215 374.813 116.748 373.97 116.317 373.108C115.887 372.243 115.492 371.363 115.138 370.465C114.784 369.567 114.47 368.654 114.193 367.731C113.919 366.807 113.685 365.869 113.492 364.923C113.298 363.978 113.145 363.025 113.035 362.068C112.926 361.108 112.856 360.148 112.831 359.18C112.805 358.217 112.82 357.253 112.878 356.289C112.937 355.325 113.035 354.365 113.178 353.412L121.509 297.248C123.017 299.45 124.652 301.553 126.412 303.557C128.175 305.561 130.052 307.452 132.045 309.227C134.035 311.005 136.127 312.655 138.317 314.181C140.511 315.703 142.786 317.09 145.148 318.339C147.506 319.588 149.934 320.69 152.424 321.647C154.917 322.603 157.462 323.403 160.05 324.053C162.642 324.699 165.263 325.192 167.91 325.52C170.561 325.852 173.222 326.024 175.891 326.031C181.02 326.031 186.077 325.447 191.071 324.283C196.062 323.114 200.855 321.398 205.451 319.131L175.248 374.233ZM276.529 293.853C275.083 291.805 273.414 289.961 271.531 288.315C269.643 286.665 267.588 285.267 265.364 284.109C263.141 282.956 260.812 282.076 258.377 281.477C255.945 280.878 253.474 280.575 250.969 280.568H249.641C247.129 280.579 244.65 280.886 242.211 281.492C239.769 282.098 237.436 282.985 235.209 284.149C232.982 285.314 230.923 286.723 229.035 288.381C227.148 290.038 225.48 291.896 224.038 293.952C223.315 294.974 222.559 295.974 221.77 296.949C220.982 297.92 220.16 298.869 219.313 299.789C218.463 300.713 217.587 301.604 216.681 302.473C215.772 303.338 214.841 304.17 213.881 304.977C212.921 305.784 211.935 306.558 210.924 307.299C209.916 308.044 208.883 308.752 207.828 309.431C206.773 310.107 205.7 310.749 204.601 311.359C203.505 311.965 202.392 312.538 201.257 313.075C200.125 313.611 198.975 314.111 197.81 314.575C196.646 315.039 195.466 315.462 194.276 315.853C193.082 316.24 191.881 316.59 190.666 316.901C189.45 317.211 188.227 317.485 186.997 317.715C185.763 317.948 184.525 318.142 183.28 318.295C182.035 318.449 180.79 318.562 179.538 318.638C178.286 318.711 177.034 318.744 175.778 318.741C174.526 318.733 173.273 318.686 172.021 318.602C170.769 318.514 169.524 318.387 168.283 318.222C167.038 318.058 165.8 317.85 164.573 317.605C163.343 317.361 162.12 317.076 160.912 316.755C159.7 316.43 158.499 316.068 157.312 315.67C156.122 315.269 154.946 314.834 153.789 314.36C152.628 313.885 151.482 313.374 150.357 312.826C149.229 312.275 148.119 311.695 147.028 311.074C145.94 310.457 144.87 309.804 143.822 309.117C142.775 308.427 141.749 307.708 140.745 306.956C139.744 306.204 138.766 305.419 137.813 304.605C136.864 303.791 135.937 302.944 135.039 302.071C134.14 301.195 133.272 300.293 132.432 299.366C131.592 298.435 130.782 297.478 130.004 296.496C129.227 295.518 128.478 294.51 127.766 293.481C127.051 292.451 126.372 291.4 125.722 290.33C125.076 289.257 124.462 288.165 123.885 287.052C123.309 285.938 122.768 284.81 122.264 283.664C121.761 282.518 121.293 281.357 120.863 280.181C120.432 279.002 120.037 277.815 119.683 276.614C119.329 275.413 119.015 274.201 118.738 272.978C118.464 271.759 118.227 270.528 118.03 269.291C117.829 268.053 117.672 266.812 117.555 265.567C117.434 264.318 117.358 263.07 117.321 261.818C117.281 260.565 117.285 259.313 117.325 258.065C117.369 256.812 117.449 255.564 117.573 254.315C117.694 253.07 117.858 251.829 118.059 250.591C118.26 249.357 118.501 248.127 118.782 246.908C119.063 245.685 119.38 244.476 119.738 243.275C120.096 242.074 120.494 240.888 120.928 239.712C121.363 238.536 121.834 237.379 122.341 236.233C122.849 235.086 123.393 233.962 123.973 232.852C124.557 231.742 125.17 230.651 125.82 229.581C126.47 228.508 127.157 227.46 127.872 226.434C128.591 225.405 129.34 224.404 130.125 223.426C130.906 222.444 131.716 221.491 132.56 220.564C133.403 219.636 134.276 218.738 135.177 217.869C136.079 216.997 137.006 216.153 137.959 215.343C138.916 214.529 139.894 213.751 140.898 212.999C141.902 212.251 142.932 211.535 143.983 210.853C145.031 210.166 146.104 209.516 147.196 208.903C148.287 208.286 149.397 207.709 150.529 207.162C151.657 206.618 152.803 206.11 153.964 205.639C155.125 205.168 156.301 204.737 157.491 204.339C158.681 203.945 159.882 203.587 161.094 203.27C162.306 202.949 163.529 202.667 164.76 202.426C165.99 202.186 167.228 201.985 168.469 201.824C169.714 201.663 170.962 201.539 172.211 201.459C173.463 201.375 174.715 201.335 175.971 201.331H283.706C285.499 205.04 287.941 208.253 291.044 210.966C294.421 213.974 298.265 216.161 302.577 217.537C302.876 217.617 303.183 217.661 303.493 217.665C303.804 217.669 304.11 217.628 304.413 217.552C304.716 217.475 305.001 217.358 305.275 217.209C305.545 217.055 305.793 216.869 306.016 216.654C306.239 216.435 306.429 216.194 306.589 215.923C306.746 215.657 306.87 215.372 306.954 215.073C307.038 214.773 307.082 214.47 307.089 214.16C307.093 213.846 307.056 213.539 306.98 213.24C306.074 209.323 305.64 205.354 305.669 201.331H324.474C326.398 201.335 328.319 201.43 330.232 201.616C332.148 201.806 334.047 202.087 335.934 202.463C337.822 202.839 339.684 203.306 341.527 203.865C343.367 204.423 345.174 205.07 346.952 205.807C348.73 206.541 350.468 207.362 352.162 208.268C353.86 209.177 355.506 210.163 357.105 211.229C358.704 212.298 360.248 213.441 361.734 214.66C363.224 215.88 364.644 217.168 366.006 218.53C367.368 219.888 368.656 221.308 369.876 222.794C371.095 224.28 372.241 225.821 373.307 227.42C374.377 229.019 375.366 230.665 376.272 232.359C377.177 234.053 377.999 235.787 378.736 237.565C379.474 239.34 380.12 241.147 380.678 242.987C381.237 244.823 381.701 246.685 382.077 248.569C382.453 250.456 382.734 252.355 382.924 254.264C383.11 256.177 383.205 258.094 383.205 260.018C383.205 261.938 383.11 263.855 382.924 265.768C382.734 267.677 382.453 269.575 382.077 271.463C381.701 273.347 381.233 275.209 380.675 277.045C380.116 278.885 379.47 280.692 378.736 282.466C377.999 284.244 377.177 285.978 376.272 287.672C375.363 289.366 374.377 291.013 373.307 292.612C372.238 294.207 371.095 295.752 369.876 297.237C368.653 298.72 367.364 300.144 366.002 301.502C364.644 302.86 363.22 304.152 361.734 305.368C360.245 306.587 358.704 307.734 357.105 308.8C355.502 309.869 353.856 310.855 352.158 311.76C350.464 312.666 348.727 313.487 346.949 314.225C345.171 314.958 343.364 315.605 341.524 316.163C339.68 316.722 337.818 317.189 335.931 317.565C334.043 317.941 332.145 318.222 330.228 318.412C328.315 318.602 326.395 318.697 324.471 318.697H324.427C322.09 318.69 319.758 318.547 317.436 318.266C315.114 317.981 312.817 317.565 310.547 317.007C308.272 316.452 306.042 315.762 303.851 314.94C301.664 314.115 299.529 313.166 297.455 312.089C295.378 311.012 293.373 309.818 291.438 308.5C289.507 307.186 287.66 305.758 285.897 304.225C284.133 302.688 282.468 301.053 280.902 299.318C279.336 297.581 277.876 295.759 276.529 293.853ZM363.845 390.504C362.939 390.778 362.023 391.015 361.099 391.212C360.172 391.41 359.237 391.567 358.299 391.687C357.361 391.804 356.415 391.881 355.47 391.921C354.524 391.957 353.578 391.954 352.633 391.91C351.687 391.87 350.742 391.786 349.804 391.662C348.865 391.541 347.934 391.377 347.007 391.176C346.083 390.972 345.167 390.731 344.265 390.453C343.36 390.172 342.469 389.854 341.589 389.5C340.713 389.142 339.852 388.752 339.008 388.321C338.165 387.894 337.34 387.43 336.537 386.93C335.73 386.43 334.949 385.901 334.189 385.335C333.43 384.769 332.696 384.17 331.988 383.546C331.279 382.918 330.6 382.261 329.947 381.574C329.297 380.888 328.673 380.176 328.081 379.439C327.49 378.698 326.931 377.938 326.406 377.15C325.88 376.365 325.387 375.558 324.927 374.729L294.954 318.916C299.525 321.209 304.3 322.943 309.28 324.122C314.256 325.301 319.305 325.893 324.42 325.893C324.438 325.893 324.453 325.893 324.471 325.893C328.815 325.9 333.116 325.48 337.376 324.629C341.637 323.779 345.773 322.519 349.782 320.844C353.79 319.171 357.594 317.12 361.194 314.688C364.794 312.26 368.116 309.497 371.164 306.408C374.136 303.418 376.805 300.18 379.163 296.69L387.345 351.857C389.382 369.749 379.722 385.638 363.845 390.504Z" fill="white" stroke="white" stroke-width="5"/>
</g>
<path d="M172.678 215.033H175.661C176.135 215.033 176.592 214.942 177.03 214.763C177.468 214.58 177.855 214.321 178.191 213.989C178.527 213.653 178.786 213.266 178.968 212.828C179.151 212.39 179.239 211.933 179.239 211.459C179.239 210.984 179.151 210.528 178.968 210.09C178.786 209.655 178.527 209.268 178.191 208.933C177.855 208.597 177.468 208.337 177.03 208.159C176.592 207.976 176.135 207.885 175.661 207.885H172.678C172.204 207.885 171.747 207.976 171.309 208.159C170.871 208.337 170.484 208.597 170.148 208.933C169.812 209.268 169.553 209.655 169.374 210.09C169.192 210.528 169.1 210.984 169.1 211.459C169.1 211.933 169.192 212.39 169.374 212.828C169.553 213.266 169.812 213.653 170.148 213.989C170.484 214.321 170.871 214.58 171.309 214.763C171.747 214.942 172.204 215.033 172.678 215.033Z" fill="white" stroke="white" stroke-width="5"/>
<path d="M229.941 211.459C229.941 210.984 229.85 210.528 229.667 210.09C229.485 209.655 229.229 209.268 228.893 208.933C228.557 208.597 228.17 208.337 227.732 208.159C227.29 207.976 226.834 207.885 226.36 207.885H186.993C186.518 207.885 186.062 207.976 185.624 208.159C185.186 208.337 184.799 208.597 184.463 208.933C184.127 209.268 183.872 209.655 183.689 210.09C183.507 210.528 183.415 210.984 183.415 211.459C183.415 211.933 183.507 212.39 183.689 212.828C183.872 213.266 184.127 213.653 184.463 213.989C184.799 214.321 185.186 214.58 185.624 214.763C186.062 214.942 186.518 215.033 186.993 215.033H226.36C226.834 215.033 227.29 214.942 227.732 214.763C228.17 214.58 228.557 214.321 228.893 213.989C229.229 213.653 229.485 213.266 229.667 212.828C229.85 212.39 229.941 211.933 229.941 211.459Z" fill="white" stroke="white" stroke-width="5"/>
</svg>
