<svg width="500" height="500" viewBox="0 0 500 500" fill="none" xmlns="http://www.w3.org/2000/svg">
<mask id="mask0_75_282" style="mask-type:luminance" maskUnits="userSpaceOnUse" x="150" y="112" width="198" height="276">
<path d="M152.585 115H344.699V385.066H152.585V115Z" fill="white" stroke="white" stroke-width="5"/>
</mask>
<g mask="url(#mask0_75_282)">
<path d="M175.878 384.482C163.375 384.468 153.238 374.339 153.224 361.835C153.224 339.448 153.224 160.36 153.224 137.974C153.238 125.47 163.375 115.334 175.878 115.319C190.449 115.319 306.989 115.319 321.555 115.319C334.063 115.334 344.199 125.47 344.21 137.974C344.21 160.36 344.21 339.448 344.21 361.835C344.192 374.339 334.063 384.468 321.555 384.482C321.555 384.482 190.449 384.482 175.878 384.482ZM175.878 121.45C166.746 121.45 159.347 128.849 159.347 137.974C159.347 160.368 159.347 339.456 159.347 361.838C159.347 370.971 166.746 378.374 175.878 378.374C190.449 378.374 306.989 378.374 321.555 378.374C330.687 378.374 338.09 370.971 338.09 361.838C338.09 339.456 338.09 160.36 338.09 137.974C338.09 128.842 330.687 121.443 321.555 121.443C292.422 121.443 205.015 121.45 175.878 121.45Z" fill="white" stroke="white" stroke-width="5"/>
</g>
<path d="M170.85 348.109C169.157 348.109 167.787 346.735 167.787 345.042C167.787 326.02 167.787 173.788 167.787 154.763C167.787 153.073 169.157 151.699 170.85 151.699C186.428 151.699 311.024 151.699 326.602 151.699C328.291 151.699 329.658 153.073 329.658 154.763C329.658 173.788 329.658 326.02 329.658 345.042C329.658 346.735 328.291 348.109 326.602 348.109C295.445 348.109 186.428 348.109 170.85 348.109ZM173.906 341.986H323.535V157.822H173.906V341.986Z" fill="white" stroke="white" stroke-width="5"/>
<path d="M225.864 140.095C224.175 140.095 222.801 138.728 222.801 137.039C222.801 135.349 224.175 133.975 225.864 133.975C230.436 133.975 266.997 133.975 271.573 133.975C273.262 133.975 274.629 135.349 274.629 137.039C274.629 138.728 273.262 140.095 271.573 140.095C262.426 140.095 230.436 140.095 225.864 140.095Z" fill="white" stroke="white" stroke-width="5"/>
<path d="M209.365 140.095C207.672 140.095 206.306 138.728 206.306 137.039C206.306 135.349 207.672 133.975 209.365 133.975C209.891 133.975 214.086 133.975 214.611 133.975C216.301 133.975 217.675 135.349 217.675 137.039C217.675 138.728 216.301 140.095 214.611 140.095C213.56 140.095 209.891 140.095 209.365 140.095Z" fill="white" stroke="white" stroke-width="5"/>
<path d="M236.896 363.013C236.896 356.487 242.182 351.19 248.708 351.19C255.233 351.19 260.526 356.48 260.526 363.005V363.013C260.519 369.531 255.233 374.817 248.715 374.824C242.189 374.824 236.896 369.538 236.896 363.013ZM243.016 363.005C243.016 366.149 245.564 368.701 248.708 368.701C251.854 368.701 254.407 366.156 254.407 363.013C254.407 359.866 251.858 357.321 248.715 357.314C245.568 357.314 243.016 359.859 243.016 363.005Z" fill="white" stroke="white" stroke-width="5"/>
<path d="M220.92 188.91C220.92 187.144 220.92 173.034 220.92 171.272C220.909 170.725 221.115 170.207 221.5 169.822C221.862 169.427 222.388 169.195 222.928 169.21C224.059 169.21 224.984 170.127 224.984 171.258C224.984 173.034 224.984 187.26 224.984 189.037C224.929 190.639 225.361 192.223 226.209 193.583C226.996 194.808 228.119 195.783 229.439 196.396C232.162 197.65 235.294 197.65 238.013 196.396C239.333 195.783 240.457 194.808 241.247 193.583C242.095 192.223 242.527 190.639 242.472 189.037C242.472 187.26 242.472 173.042 242.472 171.272C242.465 170.725 242.675 170.207 243.052 169.822C243.422 169.427 243.94 169.195 244.477 169.21C245.615 169.21 246.533 170.127 246.533 171.258C246.533 173.02 246.533 187.13 246.533 188.895C246.612 191.281 245.96 193.63 244.662 195.631C243.469 197.407 241.798 198.814 239.851 199.699C235.965 201.49 231.487 201.49 227.608 199.699C223.385 197.81 220.731 193.536 220.92 188.91Z" fill="white" stroke="white" stroke-width="5"/>
<path d="M227.365 200.272C222.913 198.278 220.118 193.779 220.307 188.91C220.307 187.144 220.307 173.034 220.307 171.272C220.296 169.815 221.46 168.622 222.913 168.611C223.628 168.604 224.316 168.887 224.813 169.391C225.317 169.884 225.6 170.562 225.596 171.272C225.596 173.049 225.596 187.264 225.596 189.044C225.549 190.537 225.944 192.006 226.735 193.271C227.467 194.398 228.504 195.301 229.722 195.867C232.281 197.038 235.218 197.038 237.777 195.867C238.995 195.301 240.029 194.406 240.761 193.271C241.54 192.013 241.932 190.545 241.885 189.058C241.885 187.278 241.885 173.049 241.885 171.272C241.874 169.815 243.038 168.622 244.491 168.611C245.206 168.604 245.894 168.887 246.391 169.391C246.895 169.884 247.178 170.562 247.171 171.272C247.171 173.034 247.171 187.144 247.171 188.91C247.366 193.779 244.578 198.278 240.134 200.272C238.129 201.192 235.939 201.664 233.735 201.664C231.534 201.664 229.359 201.185 227.365 200.272ZM221.938 170.239C221.67 170.515 221.521 170.881 221.529 171.265C221.529 173.027 221.529 187.137 221.529 188.902C221.46 191.157 222.072 193.38 223.298 195.279C224.429 196.969 226.013 198.31 227.869 199.151C231.589 200.855 235.87 200.855 239.597 199.151C241.446 198.31 243.03 196.969 244.162 195.279C245.387 193.38 246 191.157 245.927 188.902C245.927 187.137 245.927 173.027 245.927 171.272C245.927 170.475 245.285 169.837 244.499 169.844C244.129 169.844 243.77 169.985 243.502 170.246C243.233 170.515 243.085 170.888 243.092 171.272C243.092 173.049 243.092 187.264 243.092 189.044C243.139 190.766 242.679 192.466 241.765 193.927C240.91 195.247 239.702 196.302 238.278 196.962C235.392 198.285 232.075 198.285 229.185 196.962C227.757 196.302 226.55 195.247 225.694 193.927C224.78 192.466 224.316 190.766 224.364 189.044C224.364 187.264 224.364 173.049 224.364 171.272C224.367 170.888 224.215 170.515 223.939 170.254C223.675 169.978 223.312 169.822 222.928 169.83C222.551 169.815 222.192 169.964 221.938 170.239Z" fill="white" stroke="white" stroke-width="5"/>
<path d="M252.612 198.948C252.609 198.499 252.75 198.06 253.018 197.705C253.703 196.856 257.147 192.626 263.336 185.009C257.202 177.454 253.794 173.259 253.105 172.414C252.837 172.059 252.696 171.613 252.706 171.171C252.674 170.12 253.504 169.235 254.552 169.202C254.588 169.202 254.628 169.202 254.668 169.202C254.998 169.202 255.313 169.279 255.61 169.427C255.886 169.561 256.136 169.761 256.324 170.004C256.952 170.805 260.088 174.793 265.747 181.978C271.395 174.738 274.542 170.725 275.169 169.917C275.499 169.438 276.057 169.17 276.637 169.202C277.156 169.195 277.652 169.398 278.022 169.761C278.399 170.112 278.617 170.609 278.602 171.124C278.609 171.526 278.483 171.918 278.247 172.24C277.558 173.089 274.118 177.33 267.929 184.969C274.118 192.571 277.558 196.802 278.247 197.643C278.522 197.966 278.664 198.383 278.649 198.807C278.664 199.34 278.461 199.851 278.091 200.235C277.297 201.018 276.017 201.011 275.234 200.217C275.162 200.134 275.093 200.054 275.028 199.967C274.393 199.166 271.206 195.163 265.478 187.953C259.819 195.192 256.68 199.213 256.056 200.014C255.686 200.507 255.106 200.801 254.486 200.815C253.993 200.823 253.522 200.627 253.174 200.271C252.815 199.927 252.612 199.449 252.612 198.948Z" fill="white" stroke="white" stroke-width="5"/>
<path d="M274.534 200.337C273.929 199.582 270.913 195.783 265.482 188.957C260.116 195.823 257.133 199.644 256.535 200.405C255.726 201.522 254.164 201.779 253.043 200.964C252.938 200.888 252.837 200.801 252.743 200.706C252.264 200.257 251.996 199.615 251.999 198.955C251.996 198.379 252.184 197.806 252.525 197.338C253.199 196.519 256.538 192.404 262.553 185.009C256.6 177.682 253.301 173.614 252.634 172.799C252.278 172.334 252.09 171.754 252.101 171.171C252.083 170.475 252.351 169.815 252.844 169.333C253.656 168.542 254.889 168.361 255.9 168.887C256.263 169.061 256.582 169.325 256.825 169.641C257.416 170.402 260.392 174.18 265.747 180.988C271.112 174.118 274.092 170.308 274.69 169.539C275.586 168.448 277.203 168.289 278.301 169.184C278.352 169.231 278.399 169.278 278.453 169.325C278.954 169.789 279.236 170.442 279.222 171.127C279.229 171.653 279.059 172.171 278.751 172.603C278.076 173.426 274.737 177.548 268.723 184.969C274.723 192.343 278.058 196.443 278.725 197.266C279.095 197.69 279.284 198.237 279.269 198.796C279.284 199.481 279.019 200.148 278.537 200.648C278.044 201.17 277.351 201.46 276.637 201.442C275.792 201.442 275.006 201.029 274.534 200.337ZM265.471 186.977C271.489 194.551 274.832 198.76 275.506 199.597C275.908 200.235 276.749 200.431 277.391 200.028C277.801 199.771 278.051 199.307 278.029 198.821C278.051 198.546 277.964 198.277 277.783 198.067C277.072 197.197 273.523 192.836 267.139 184.983C273.519 177.109 277.061 172.744 277.768 171.87C277.924 171.653 277.997 171.399 277.989 171.134C278.004 170.786 277.862 170.457 277.598 170.221C277.344 169.964 277 169.822 276.637 169.829C276.26 169.797 275.89 169.964 275.673 170.279C275.013 171.127 271.699 175.358 265.747 182.982C259.805 175.434 256.498 171.243 255.839 170.402C255.704 170.228 255.538 170.087 255.335 169.993C254.794 169.71 254.142 169.797 253.7 170.206C253.442 170.464 253.301 170.819 253.323 171.182C253.308 171.501 253.41 171.809 253.598 172.066C254.298 172.925 257.807 177.243 264.122 185.009C257.745 192.847 254.204 197.204 253.497 198.074C253.315 198.324 253.221 198.625 253.232 198.937C253.228 199.274 253.362 199.597 253.605 199.825C254.088 200.329 254.889 200.344 255.389 199.858C255.462 199.793 255.53 199.709 255.585 199.622C256.897 197.94 260.196 193.724 265.471 186.977Z" fill="white" stroke="white" stroke-width="5"/>
<path d="M225.48 247.107C225.48 245.345 225.48 231.235 225.48 229.47C225.473 228.933 225.683 228.408 226.06 228.016C226.43 227.625 226.948 227.396 227.489 227.411C228.627 227.411 229.541 228.328 229.541 229.463C229.541 231.243 229.541 245.447 229.541 247.216C229.493 248.826 229.918 250.417 230.766 251.777C231.556 253.002 232.68 253.977 234.007 254.583C236.726 255.837 239.851 255.837 242.574 254.583C243.9 253.977 245.017 253.002 245.811 251.777C246.659 250.41 247.083 248.826 247.036 247.216C247.036 245.447 247.036 231.243 247.036 229.463C247.025 228.919 247.232 228.4 247.616 228.009C247.979 227.614 248.497 227.389 249.045 227.396C250.176 227.396 251.097 228.321 251.097 229.452C251.097 229.452 251.097 229.452 251.097 229.459C251.097 231.214 251.097 245.323 251.097 247.089C251.173 249.474 250.52 251.824 249.226 253.825C248.026 255.609 246.358 257.022 244.404 257.911C240.518 259.694 236.041 259.694 232.154 257.911C227.945 256.025 225.292 251.744 225.48 247.107Z" fill="white" stroke="white" stroke-width="5"/>
<path d="M231.937 258.476C229.885 257.548 228.127 256.058 226.869 254.187C225.502 252.092 224.806 249.619 224.882 247.122C224.882 245.356 224.882 231.235 224.882 229.47C224.86 228.016 226.02 226.823 227.474 226.805C228.195 226.791 228.881 227.074 229.385 227.585C229.899 228.078 230.182 228.763 230.168 229.47C230.168 231.25 230.168 245.454 230.168 247.23C230.128 248.717 230.519 250.185 231.299 251.454C232.027 252.578 233.064 253.473 234.275 254.039C236.835 255.21 239.778 255.21 242.338 254.039C243.556 253.473 244.593 252.578 245.321 251.447C246.101 250.181 246.492 248.713 246.445 247.223C246.445 245.454 246.445 231.25 246.445 229.47C246.424 228.016 247.584 226.816 249.037 226.798C249.759 226.791 250.444 227.074 250.952 227.577C251.463 228.078 251.746 228.756 251.731 229.47C251.731 231.235 251.731 245.345 251.731 247.107C251.807 249.609 251.118 252.074 249.752 254.173C248.494 256.047 246.735 257.526 244.68 258.458C242.679 259.379 240.503 259.857 238.296 259.865C236.102 259.865 233.938 259.386 231.937 258.476ZM226.499 228.448C226.227 228.723 226.085 229.093 226.093 229.47C226.093 231.235 226.093 245.345 226.093 247.107C226.02 249.366 226.64 251.588 227.866 253.488C228.997 255.177 230.577 256.518 232.43 257.352C236.153 259.063 240.438 259.063 244.154 257.352C246.014 256.518 247.598 255.177 248.729 253.48C249.947 251.588 250.567 249.366 250.491 247.107C250.491 245.345 250.491 231.235 250.491 229.47C250.506 229.086 250.35 228.716 250.067 228.455C249.541 227.9 248.668 227.875 248.117 228.4C248.095 228.422 248.08 228.433 248.062 228.455C247.79 228.723 247.645 229.093 247.656 229.477C247.656 231.257 247.656 245.458 247.656 247.238C247.703 248.96 247.247 250.664 246.329 252.132C245.474 253.451 244.263 254.503 242.835 255.163C239.952 256.489 236.632 256.489 233.742 255.163C232.321 254.503 231.11 253.451 230.262 252.132C229.337 250.671 228.881 248.967 228.928 247.238C228.928 245.458 228.928 231.257 228.928 229.484C228.935 229.1 228.786 228.73 228.504 228.462C228.243 228.183 227.869 228.023 227.488 228.031C227.115 228.016 226.753 228.172 226.499 228.448Z" fill="white" stroke="white" stroke-width="5"/>
<path d="M259.551 257.023C259.551 254.267 259.551 232.225 259.551 229.47C259.536 228.933 259.747 228.408 260.131 228.016C260.501 227.617 261.019 227.396 261.556 227.411C262.691 227.411 263.611 228.332 263.611 229.463C263.611 232.218 263.611 254.26 263.611 257.015C263.619 257.555 263.397 258.074 262.999 258.444C262.614 258.821 262.089 259.031 261.552 259.024C261.019 259.031 260.508 258.828 260.131 258.451C259.747 258.074 259.536 257.563 259.551 257.023Z" fill="white" stroke="white" stroke-width="5"/>
<path d="M259.7 258.89C259.199 258.396 258.924 257.722 258.938 257.022C258.938 254.267 258.938 232.225 258.938 229.47C258.931 228.77 259.199 228.089 259.692 227.592C260.729 226.562 262.404 226.562 263.445 227.592C263.956 228.085 264.239 228.77 264.224 229.477C264.224 232.232 264.224 254.274 264.224 257.03C264.239 257.737 263.956 258.415 263.437 258.9C262.93 259.386 262.259 259.654 261.556 259.644C260.856 259.654 260.189 259.379 259.7 258.89ZM262.589 258.019C262.857 257.762 263.013 257.407 262.999 257.037C262.999 254.282 262.999 232.24 262.999 229.484C263.013 229.1 262.857 228.73 262.574 228.462C262.034 227.907 261.139 227.897 260.588 228.44C260.305 228.709 260.149 229.093 260.164 229.484C260.164 232.24 260.164 254.282 260.164 257.037C260.149 257.4 260.298 257.755 260.559 258.019C261.128 258.563 262.023 258.563 262.589 258.019Z" fill="white" stroke="white" stroke-width="5"/>
<path d="M188.951 215.977C187.262 215.977 185.888 214.606 185.888 212.917C185.888 211.228 187.262 209.854 188.951 209.854C200.904 209.854 296.515 209.854 308.471 209.854C310.161 209.854 311.527 211.228 311.527 212.917C311.527 214.606 310.161 215.977 308.471 215.977C284.562 215.977 200.904 215.977 188.951 215.977Z" fill="white" stroke="white" stroke-width="5"/>
<path d="M191.532 329.768C189.839 329.768 188.473 328.402 188.473 326.712C188.473 325.023 189.839 323.649 191.532 323.649C202.974 323.649 294.477 323.649 305.912 323.649C307.601 323.649 308.975 325.023 308.975 326.712C308.975 328.402 307.601 329.768 305.912 329.768C283.032 329.768 202.974 329.768 191.532 329.768Z" fill="white" stroke="white" stroke-width="5"/>
<path d="M210.301 314.44C208.611 314.44 207.237 313.066 207.237 311.377C207.237 309.688 208.611 308.321 210.301 308.321C217.979 308.321 279.45 308.321 287.136 308.321C288.825 308.321 290.192 309.688 290.192 311.377C290.192 313.066 288.825 314.44 287.136 314.44C271.768 314.44 217.979 314.44 210.301 314.44Z" fill="white" stroke="white" stroke-width="5"/>
<path d="M226.564 300.918C221.851 300.911 218.03 297.086 218.026 292.373C218.026 290.937 218.026 279.427 218.026 277.988C218.03 273.271 221.851 269.454 226.564 269.446C230.994 269.446 266.432 269.446 270.866 269.446C275.579 269.454 279.396 273.271 279.403 277.988C279.403 279.427 279.403 290.937 279.403 292.373C279.396 297.086 275.579 300.911 270.866 300.918C270.866 300.918 230.994 300.918 226.564 300.918ZM226.564 275.569C225.23 275.569 224.153 276.653 224.146 277.988C224.146 279.427 224.146 290.937 224.146 292.373C224.153 293.711 225.23 294.791 226.564 294.791C230.994 294.791 266.432 294.791 270.866 294.791C272.2 294.791 273.284 293.711 273.284 292.373C273.284 290.937 273.284 279.427 273.284 277.988C273.284 276.653 272.2 275.569 270.866 275.569C262.002 275.569 235.428 275.569 226.564 275.569Z" fill="white" stroke="white" stroke-width="5"/>
<path d="M308.471 187.035C306.782 187.035 305.408 185.661 305.408 183.972C305.408 182.282 306.782 180.916 308.471 180.916C313.583 180.916 354.48 180.916 359.592 180.916C361.281 180.916 362.652 182.282 362.652 183.972C362.652 185.661 361.281 187.035 359.592 187.035C349.369 187.035 313.583 187.035 308.471 187.035Z" fill="white" stroke="white" stroke-width="5"/>
<path d="M359.592 205.716C357.903 205.716 356.529 204.342 356.529 202.653C356.529 198.923 356.529 169.043 356.529 165.309C356.529 163.619 357.903 162.245 359.592 162.245C363.322 162.245 393.206 162.245 396.937 162.245C398.626 162.245 400 163.619 400 165.309C400 169.043 400 198.923 400 202.653C400 204.342 398.626 205.716 396.937 205.716C389.468 205.716 363.322 205.716 359.592 205.716ZM362.652 199.597H393.88V168.368H362.652V199.597Z" fill="white" stroke="white" stroke-width="5"/>
<path d="M370.45 181.583C368.757 181.583 367.39 180.209 367.39 178.516C367.39 176.826 368.757 175.459 370.45 175.459C372.012 175.459 384.505 175.459 386.068 175.459C387.757 175.459 389.124 176.826 389.124 178.516C389.124 180.209 387.757 181.583 386.068 181.583C382.943 181.583 372.012 181.583 370.45 181.583Z" fill="white" stroke="white" stroke-width="5"/>
<path d="M370.45 192.491C368.757 192.491 367.39 191.125 367.39 189.435C367.39 187.742 368.757 186.368 370.45 186.368C372.012 186.368 384.505 186.368 386.068 186.368C387.757 186.368 389.124 187.742 389.124 189.435C389.124 191.125 387.757 192.491 386.068 192.491C382.943 192.491 372.012 192.491 370.45 192.491Z" fill="white" stroke="white" stroke-width="5"/>
<path d="M140.408 245.581C138.719 245.581 137.352 244.214 137.352 242.521C137.352 240.832 138.719 239.458 140.408 239.458C145.52 239.458 186.421 239.458 191.532 239.458C193.222 239.458 194.596 240.832 194.596 242.521C194.596 244.214 193.222 245.581 191.532 245.581C181.309 245.581 145.52 245.581 140.408 245.581Z" fill="white" stroke="white" stroke-width="5"/>
<path d="M103.067 264.262C101.374 264.262 100 262.888 100 261.199C100 257.469 100 227.585 100 223.854C100 222.165 101.374 220.791 103.067 220.791C106.797 220.791 136.677 220.791 140.408 220.791C142.097 220.791 143.471 222.165 143.471 223.854C143.471 227.585 143.471 257.469 143.471 261.199C143.471 262.888 142.097 264.262 140.408 264.262C132.94 264.262 106.797 264.262 103.067 264.262ZM106.123 258.139H137.352V226.911H106.123V258.139Z" fill="white" stroke="white" stroke-width="5"/>
<path d="M112.776 240.125C111.086 240.125 109.712 238.751 109.712 237.061C109.712 235.372 111.086 234.001 112.776 234.001C114.566 234.001 128.912 234.001 130.71 234.001C132.399 234.001 133.77 235.372 133.77 237.061C133.77 238.751 132.399 240.125 130.71 240.125C127.121 240.125 114.566 240.125 112.776 240.125Z" fill="white" stroke="white" stroke-width="5"/>
<path d="M112.776 251.04C111.086 251.04 109.712 249.666 109.712 247.977C109.712 246.288 111.086 244.921 112.776 244.921C114.566 244.921 128.912 244.921 130.71 244.921C132.399 244.921 133.77 246.288 133.77 247.977C133.77 249.666 132.399 251.04 130.71 251.04C127.121 251.04 114.566 251.04 112.776 251.04Z" fill="white" stroke="white" stroke-width="5"/>
</svg>
