<svg width="500" height="500" viewBox="0 0 500 500" fill="none" xmlns="http://www.w3.org/2000/svg">
<path d="M249.792 274.989C252.537 274.989 254.787 272.739 254.787 269.99V254.998H259.778C268.017 254.998 274.755 248.249 274.755 240.003C274.755 231.756 268.017 225.011 259.778 225.011H249.792C247.046 225.011 244.8 227.26 244.8 230.009V269.99C244.8 272.739 247.046 274.989 249.792 274.989ZM254.787 235.008H259.778C262.523 235.008 264.773 237.254 264.773 240.003C264.773 242.752 262.523 245.001 259.778 245.001H254.787V235.008Z" fill="white"/>
<path d="M289.737 274.989C292.482 274.989 294.728 272.739 294.728 269.99V230.009C294.728 227.26 292.482 225.011 289.737 225.011C286.988 225.011 284.742 227.26 284.742 230.009V269.99C284.742 272.739 286.988 274.989 289.737 274.989Z" fill="white"/>
<path d="M209.85 274.989C212.595 274.989 214.842 272.739 214.842 269.99V254.998H224.828V269.99C224.828 272.739 227.074 274.989 229.823 274.989C232.568 274.989 234.814 272.739 234.814 269.99V240.003C234.814 231.756 228.072 225.011 219.836 225.011C211.597 225.011 204.859 231.756 204.859 240.003V269.99C204.859 272.739 207.105 274.989 209.85 274.989ZM214.842 240.003C214.842 237.254 217.091 235.008 219.836 235.008C222.582 235.008 224.828 237.254 224.828 240.003V245.001H214.842V240.003Z" fill="white"/>
<path d="M249.792 324.964C291.107 324.964 324.683 291.356 324.683 250C324.683 208.645 291.107 175.033 249.792 175.033C208.476 175.033 174.9 208.645 174.9 250C174.9 291.356 208.476 324.964 249.792 324.964ZM249.792 185.03C285.552 185.03 314.701 214.204 314.701 250C314.701 285.797 285.552 314.971 249.792 314.971C214.031 314.971 184.886 285.797 184.886 250C184.886 214.204 214.031 185.03 249.792 185.03Z" fill="white"/>
<mask id="mask0_75_283" style="mask-type:luminance" maskUnits="userSpaceOnUse" x="105" y="100" width="290" height="300">
<path d="M105 100H394.583V400H105V100Z" fill="white"/>
</mask>
<g mask="url(#mask0_75_283)">
<path d="M119.981 359.95C128.217 359.95 134.959 353.201 134.959 344.955C134.959 338.459 130.778 332.899 124.972 330.838V317.405L162.545 287.294C164.791 292.481 167.475 297.541 170.592 302.225L161.42 311.408C159.485 313.346 159.485 316.533 161.42 318.468L181.392 338.459C183.327 340.394 186.51 340.394 188.442 338.459L197.618 329.275C207.416 335.71 218.401 340.332 229.823 342.831V359.95C229.823 362.699 232.069 364.945 234.814 364.945H264.773C267.518 364.945 269.764 362.699 269.764 359.95V342.831C273.945 341.956 278.065 340.77 282.058 339.272L289.798 385.75C290.171 388.184 292.294 389.934 294.728 389.934H310.581C312.639 395.743 318.194 399.931 324.683 399.931C332.922 399.931 339.664 393.182 339.664 384.936C339.664 376.689 332.922 369.944 324.683 369.944C318.194 369.944 312.639 374.128 310.581 379.941H298.971L291.545 335.272C295.166 333.525 298.66 331.525 302.03 329.275L311.203 338.459C313.138 340.394 316.321 340.394 318.256 338.459L338.228 318.468C340.163 316.533 340.163 313.346 338.228 311.408L329.052 302.225C329.551 301.476 330.051 300.727 330.488 299.975H365.5C367.561 305.787 373.113 309.972 379.606 309.972C387.845 309.972 394.583 303.226 394.583 294.98C394.583 286.733 387.845 279.984 379.606 279.984C373.113 279.984 367.561 284.173 365.5 289.981H335.856C338.851 283.608 341.1 276.863 342.598 269.991H359.633C362.382 269.991 364.628 267.741 364.628 264.992V235.008C364.628 232.259 362.382 230.01 359.633 230.01H342.533C340.098 218.577 335.483 207.581 328.991 197.772L338.167 188.592C340.098 186.654 340.098 183.467 338.167 181.532L318.194 161.542C316.259 159.603 313.076 159.603 311.141 161.542L301.969 170.725C298.598 168.537 295.104 166.54 291.545 164.728L317.569 120.059H335.545C337.603 125.868 343.158 130.057 349.651 130.057C357.886 130.057 364.628 123.307 364.628 115.061C364.628 106.814 357.886 100.069 349.651 100.069C343.158 100.069 337.603 104.254 335.545 110.066H314.7C312.95 110.066 311.268 111.003 310.393 112.565L282.308 160.789C278.253 159.292 274.072 158.106 269.826 157.169V140.05C269.826 137.301 267.58 135.051 264.834 135.051H234.876C232.13 135.051 229.884 137.301 229.884 140.05V157.169C218.462 159.603 207.478 164.225 197.679 170.725L188.507 161.542C186.572 159.603 183.389 159.603 181.454 161.542L174.278 168.598L149.936 152.358V129.181C155.741 127.12 159.923 121.56 159.923 115.061C159.923 106.814 153.181 100.069 144.945 100.069C136.706 100.069 129.964 106.814 129.964 115.061C129.964 121.56 134.145 127.12 139.95 129.181V155.042C139.95 156.731 140.76 158.294 142.196 159.23L167.098 175.846L161.42 181.532C159.485 183.467 159.485 186.654 161.42 188.592L170.592 197.772C164.165 207.581 159.546 218.577 157.051 230.01H139.95C137.205 230.01 134.959 232.259 134.959 235.008V264.992C134.959 267.741 137.205 269.991 139.95 269.991H157.051C157.611 272.49 158.237 274.924 158.986 277.362L116.921 311.097C115.735 312.034 115.048 313.469 115.048 314.97V330.838C109.246 332.899 105.065 338.459 105.065 344.955C105 353.201 111.742 359.95 119.981 359.95ZM324.683 379.941C327.432 379.941 329.678 382.187 329.678 384.936C329.678 387.685 327.432 389.934 324.683 389.934C321.938 389.934 319.692 387.685 319.692 384.936C319.692 382.187 321.938 379.941 324.683 379.941ZM379.606 289.981C382.351 289.981 384.597 292.231 384.597 294.98C384.597 297.729 382.351 299.975 379.606 299.975C376.861 299.975 374.614 297.729 374.614 294.98C374.614 292.231 376.861 289.981 379.606 289.981ZM349.651 110.066C352.396 110.066 354.642 112.312 354.642 115.061C354.642 117.81 352.396 120.059 349.651 120.059C346.902 120.059 344.656 117.81 344.656 115.061C344.656 112.312 346.902 110.066 349.651 110.066ZM144.945 120.059C142.196 120.059 139.95 117.81 139.95 115.061C139.95 112.312 142.196 110.066 144.945 110.066C147.69 110.066 149.936 112.312 149.936 115.061C149.936 117.81 147.69 120.059 144.945 120.059ZM144.945 259.994V240.003H161.17C163.605 240.003 165.663 238.256 166.1 235.818C168.223 223.011 173.464 210.645 181.078 200.087C182.514 198.087 182.326 195.338 180.579 193.587L171.967 185.03L184.886 172.099L193.498 180.718C195.245 182.469 197.99 182.657 199.991 181.218C210.537 173.535 222.893 168.349 235.689 166.226C238.124 165.853 239.87 163.726 239.87 161.292V145.049H259.839V161.292C259.839 163.726 261.586 165.788 264.02 166.226C276.817 168.349 289.172 173.597 299.719 181.218C301.719 182.657 304.465 182.469 306.212 180.718L314.823 172.099L327.743 185.03L319.131 193.652C317.384 195.399 317.196 198.148 318.632 200.148C326.307 210.706 331.487 223.076 333.61 235.88C333.982 238.318 336.105 240.068 338.539 240.068H354.765V260.059H338.539C336.105 260.059 334.047 261.806 333.61 264.243C331.487 277.051 326.246 289.417 318.632 299.975C317.196 301.975 317.384 304.724 319.131 306.474L327.743 315.093L314.7 327.901L306.085 319.282C304.338 317.531 301.593 317.343 299.596 318.779C289.049 326.465 276.69 331.648 263.898 333.775C261.463 334.147 259.716 336.27 259.716 338.708V354.952H239.744V338.708C239.744 336.27 237.997 334.212 235.563 333.775C222.77 331.648 210.411 326.465 199.864 318.779C197.867 317.343 195.122 317.531 193.375 319.282L184.886 327.901L171.967 314.97L180.579 306.348C182.326 304.601 182.514 301.852 181.078 299.852C173.403 289.294 168.223 276.924 166.1 264.117C165.728 261.683 163.605 259.932 161.17 259.932H144.945V259.994ZM119.981 339.96C122.726 339.96 124.972 342.206 124.972 344.955C124.972 347.703 122.726 349.953 119.981 349.953C117.232 349.953 114.986 347.703 114.986 344.955C114.986 342.206 117.232 339.96 119.981 339.96Z" fill="white"/>
</g>
</svg>
