<svg width="500" height="500" viewBox="0 0 500 500" fill="none" xmlns="http://www.w3.org/2000/svg">
<mask id="mask0_75_284" style="mask-type:luminance" maskUnits="userSpaceOnUse" x="222" y="223" width="178" height="163">
<path d="M222 223.851H400V385.328H222V223.851Z" fill="white"/>
</mask>
<g mask="url(#mask0_75_284)">
<path d="M341.966 375.859C336.74 375.859 332.49 371.603 332.49 366.376C332.49 361.146 336.74 356.893 341.966 356.893C347.193 356.893 351.453 361.146 351.453 366.376C351.453 371.603 347.193 375.859 341.966 375.859ZM246.044 323.689L234.295 280.61L366.209 271.808L354.24 323.689H246.044ZM256.642 375.859C251.415 375.859 247.162 371.603 247.162 366.376C247.162 361.146 251.415 356.893 256.642 356.893C261.868 356.893 266.117 361.146 266.117 366.376C266.117 371.603 261.868 375.859 256.642 375.859ZM400 233.435L397.702 224.23L375.92 229.678L368.431 262.155L222.101 271.916L238.805 333.172H352.053L348.488 348.63C346.447 347.877 344.264 347.403 341.966 347.403C334.984 347.403 328.932 351.247 325.646 356.893H272.969C269.675 351.247 263.631 347.403 256.642 347.403C246.181 347.403 237.676 355.92 237.676 366.376C237.676 376.84 246.181 385.342 256.642 385.342C267.098 385.342 275.604 376.84 275.604 366.376H323.004C323.004 376.84 331.51 385.342 341.966 385.342C352.426 385.342 360.932 376.84 360.932 366.376C360.932 361.961 359.35 357.947 356.817 354.718L383.861 237.47L400 233.435Z" fill="white"/>
</g>
<mask id="mask1_75_284" style="mask-type:luminance" maskUnits="userSpaceOnUse" x="100" y="115" width="257" height="257">
<path d="M100 115H356.961V371.176H100V115Z" fill="white"/>
</mask>
<g mask="url(#mask1_75_284)">
<path d="M141.439 323.711C148.971 319.114 157.458 315.144 166.746 311.937C173.467 330.845 182.914 346.274 194.203 356.637C173.753 350.498 155.623 338.974 141.439 323.711ZM194.203 129.485C182.899 139.855 173.445 155.313 166.717 174.25C157.444 171.043 149.007 167.022 141.446 162.404C155.623 147.141 173.76 135.624 194.203 129.485ZM314.951 162.404C307.39 167.022 298.953 171.043 289.673 174.25C282.951 155.313 273.497 139.855 262.197 129.485C282.636 135.624 300.773 147.141 314.951 162.404ZM300.657 238.318C300.263 218.364 297.407 199.713 292.586 183.244C303.111 179.618 312.699 175.036 321.194 169.697C336.229 188.735 345.56 212.468 346.584 238.318H300.657ZM232.942 193.393C250.655 193.006 267.811 190.509 283.465 186.071C288.04 201.689 290.784 219.442 291.178 238.318H232.942V193.393ZM223.455 124.859V183.91C206.722 183.53 190.565 181.192 175.852 177.062C186.349 147.698 203.642 127.646 223.455 124.859ZM232.942 124.859C252.754 127.646 270.048 147.698 280.544 177.062C265.835 181.192 249.674 183.53 232.942 183.91V124.859ZM165.218 238.318C165.613 219.442 168.356 201.689 172.931 186.071C188.589 190.509 205.745 193.006 223.455 193.393V238.318H165.218ZM109.812 238.318C110.829 212.468 120.167 188.735 135.203 169.697C143.701 175.036 153.289 179.618 163.81 183.244C158.989 199.713 156.134 218.364 155.739 238.318H109.812ZM163.836 302.935C153.296 306.569 143.661 311.108 135.203 316.425C120.167 297.387 110.829 273.654 109.812 247.804H155.739C156.134 267.787 158.997 286.46 163.836 302.935ZM232.942 371.114V342.666H223.455V361.266C203.635 358.475 186.341 338.409 175.838 309.038C190.602 304.886 206.842 302.483 223.556 302.117L223.354 292.627C205.727 293.014 188.564 295.584 172.924 300.022C168.356 284.411 165.613 266.665 165.218 247.804H223.455V262.032H232.942V247.804H346.711V252.549H356.187V238.318H356.071C353.559 169.9 297.183 115.007 228.2 115.007C157.629 115.007 100.21 172.451 100.21 243.066C100.21 313.674 157.629 371.114 228.2 371.114H232.942Z" fill="white"/>
</g>
<path d="M252.885 371.198H262.371V361.715H252.885V371.198Z" fill="white"/>
<path d="M338.213 371.198H347.699V361.715H338.213V371.198Z" fill="white"/>
<path d="M271.85 281.088H252.885V290.571H271.85V281.088Z" fill="white"/>
<path d="M309.771 281.088H290.813V290.571H309.771V281.088Z" fill="white"/>
<path d="M328.734 281.088V290.571H347.699V281.088H328.734Z" fill="white"/>
<path d="M290.813 295.316H271.851V304.799H290.813V295.316Z" fill="white"/>
<path d="M328.733 295.316H309.771V304.799H328.733V295.316Z" fill="white"/>
<path d="M290.813 319.027H309.771V309.544H290.813V319.027Z" fill="white"/>
<path d="M328.734 319.027H347.699V309.544H328.734V319.027Z" fill="white"/>
<path d="M252.885 319.027H271.85V309.544H252.885V319.027Z" fill="white"/>
</svg>
