<svg width="500" height="500" viewBox="0 0 500 500" fill="none" xmlns="http://www.w3.org/2000/svg">
<mask id="mask0_77_1314" style="mask-type:luminance" maskUnits="userSpaceOnUse" x="39" y="337" width="88" height="97">
<path d="M39 337.667H126.953V433.667H39V337.667Z" fill="white"/>
</mask>
<g mask="url(#mask0_77_1314)">
<path d="M126.328 381.911C126.328 357.807 106.771 338.25 82.6667 338.25C58.5573 338.25 39 357.807 39 381.911C39 398.057 47.7865 412.125 60.8333 419.687V432.849H104.5V419.687C117.547 412.125 126.328 398.057 126.328 381.911Z" fill="#F7B60B"/>
</g>
<path d="M60.8333 440.125C60.8333 452.177 70.6145 461.958 82.6666 461.958C94.7187 461.958 104.5 452.177 104.5 440.125V432.849H60.8333V440.125Z" fill="#D2DBDA"/>
<mask id="mask1_77_1314" style="mask-type:luminance" maskUnits="userSpaceOnUse" x="39" y="340" width="78" height="94">
<path d="M39 340.333H116.286V433.667H39V340.333Z" fill="white"/>
</mask>
<g mask="url(#mask1_77_1314)">
<path d="M108.135 411.021C82.0104 411.021 60.8333 389.844 60.8333 363.719C60.8333 355.646 62.8802 348.058 66.4323 341.406C50.375 347.86 39 363.547 39 381.912C39 398.058 47.7865 412.125 60.8333 419.688V432.849H104.5V419.688C108.734 417.245 112.458 414.031 115.641 410.365C113.198 410.761 110.698 411.021 108.135 411.021Z" fill="#E48E1E"/>
</g>
<path d="M97.2187 447.401H103.161C103.958 445.13 104.5 442.682 104.5 440.125V432.849H60.8333V440.125C60.8333 450.219 67.7135 458.604 76.9791 461.104C80.2239 453.089 88.0364 447.401 97.2187 447.401Z" fill="#8F9697"/>
<path d="M102.364 376.766C99.5259 373.922 94.9165 373.922 92.078 376.766L82.6665 386.177L73.255 376.766C70.4113 373.922 65.8071 373.922 62.9634 376.766C60.1248 379.609 60.1248 384.214 62.9634 387.057L75.3905 399.479V432.849C75.3905 436.859 78.6561 440.125 82.6665 440.125C86.6717 440.125 89.9425 436.859 89.9425 432.849V399.479L102.364 387.057C105.208 384.214 105.208 379.609 102.364 376.766Z" fill="#F3E305"/>
<path d="M108.135 440.125H57.1925C53.1873 440.125 49.9165 436.859 49.9165 432.849C49.9165 428.844 53.1873 425.573 57.1925 425.573H108.135C112.146 425.573 115.417 428.844 115.417 432.849C115.417 436.859 112.146 440.125 108.135 440.125Z" fill="#D2DBDA"/>
<path d="M366.995 337L336.125 367.87L264.088 295.839L294.963 264.969L366.995 337Z" fill="#8F9697"/>
<path d="M330.411 300.417C317.932 310.99 300.078 311.901 286.745 302.948C294.021 294.615 300.39 285.495 305.651 275.656L294.963 264.969L264.088 295.839L336.125 367.87L366.995 337L330.411 300.417Z" fill="#5E6574"/>
<mask id="mask2_77_1314" style="mask-type:luminance" maskUnits="userSpaceOnUse" x="39" y="39" width="292" height="292">
<path d="M39 39H330.953V331H39V39Z" fill="white"/>
</mask>
<g mask="url(#mask2_77_1314)">
<path d="M330.099 185.438C330.099 265.823 264.943 330.974 184.552 330.974C104.156 330.974 39 265.823 39 185.438C39 105.047 104.156 39.9011 184.552 39.9011C264.943 39.9011 330.099 105.047 330.099 185.438Z" fill="#D2DBDA"/>
</g>
<mask id="mask3_77_1314" style="mask-type:luminance" maskUnits="userSpaceOnUse" x="39" y="67" width="276" height="264">
<path d="M39 67H314.953V331H39V67Z" fill="white"/>
</mask>
<g mask="url(#mask3_77_1314)">
<path d="M228.214 280.036C147.823 280.036 82.6667 214.885 82.6667 134.5C82.6667 110.505 88.5781 87.9375 98.8438 67.9844C62.625 94.4479 39 137.141 39 185.438C39 265.823 104.156 330.974 184.552 330.974C240.948 330.974 289.729 298.854 313.922 251.953C289.844 269.516 260.281 280.036 228.214 280.036Z" fill="#8F9697"/>
</g>
<path d="M300.99 185.437C300.99 249.734 248.854 301.864 184.552 301.864C120.245 301.864 68.1094 249.734 68.1094 185.437C68.1094 121.135 120.245 69.0049 184.552 69.0049C248.854 69.0049 300.99 121.135 300.99 185.437Z" fill="#B3E6FA"/>
<path d="M264.599 403.739H206.38V374.635H264.599V403.739Z" fill="#B3E6FA"/>
<path d="M184.552 69.0049C146.828 69.0049 113.396 87.0257 92.104 114.828C111.719 99.8486 136.135 90.8382 162.719 90.8382C227.021 90.8382 279.156 142.968 279.156 207.265C279.156 233.843 270.146 258.26 255.161 277.875C282.963 256.583 300.989 223.156 300.989 185.437C300.989 121.135 248.854 69.0049 184.552 69.0049Z" fill="#6DBBEA"/>
<path d="M432.865 46.292C424.333 37.766 410.521 37.766 401.99 46.292L396.844 51.4378L257.922 180.094L247.599 231.542L299.057 221.25L427.719 82.3076L432.865 77.167C441.391 68.6357 441.391 54.8232 432.865 46.292Z" fill="#F3E305"/>
<path d="M433.573 47.1768C433.318 47.458 433.146 47.7705 432.865 48.057L427.719 53.2028L334.729 153.63C312.984 177.109 284.755 193.479 253.74 200.958L247.599 231.541L299.057 221.25L427.719 82.307L432.865 77.1663C441.104 68.9215 441.307 55.7288 433.573 47.1768Z" fill="#F7B60B"/>
<path d="M278.474 207.948C276.625 207.948 274.776 207.208 273.354 205.786C270.484 202.948 270.484 198.37 273.354 195.526L288.792 180.094C291.635 177.219 296.213 177.219 299.057 180.094C301.927 182.932 301.927 187.51 299.057 190.354L283.62 205.786C282.198 207.208 280.349 207.948 278.474 207.948Z" fill="#D2DBDA"/>
<path d="M300.161 181.739C292.005 186.713 283.39 190.948 274.437 194.416L273.354 195.526C270.484 198.369 270.484 202.948 273.354 205.786C274.776 207.208 276.625 207.948 278.474 207.948C280.349 207.948 282.198 207.208 283.62 205.786L299.057 190.354C301.417 188.021 301.698 184.5 300.161 181.739Z" fill="#8F9697"/>
<path d="M257.922 180.094L256.188 188.646L290.5 222.959L299.057 221.25L304.031 215.907L263.234 175.12L257.922 180.094Z" fill="#8F9697"/>
<path d="M401.99 46.292L391.302 56.1878L422.969 87.8545L432.865 77.167L401.99 46.292Z" fill="#8F9697"/>
<path d="M265.255 197.714L290.5 222.958L299.057 221.25L304 215.906L280.151 192.031C275.292 194.135 270.344 196.094 265.255 197.714Z" fill="#5E6574"/>
<path d="M408.786 73.667L422.771 87.6514L427.719 82.3076L432.865 77.167L418.677 62.9795L408.786 73.667Z" fill="#5E6574"/>
<path d="M266.875 267.755C221.422 313.234 147.677 313.234 102.224 267.755C56.7395 222.302 56.7395 148.567 102.224 103.114L266.875 267.755Z" fill="#6DBBEA"/>
<path d="M184.552 229.099H111.776V156.328H184.552V229.099Z" fill="#6CC02E"/>
<path d="M213.661 127.219H140.885L111.776 156.328H184.552L213.661 127.219Z" fill="#B9DE23"/>
<path d="M213.661 199.99L184.552 229.099V156.328L213.661 127.219V199.99Z" fill="#95D221"/>
<path d="M75.5312 144.817C60.151 186.177 68.9635 234.526 102.224 267.755C135.51 301.041 183.896 309.854 225.312 294.416C223.839 294.448 222.417 294.588 220.937 294.588C140.542 294.588 75.3906 229.437 75.3906 149.052C75.3906 147.63 75.4739 146.239 75.5312 144.817Z" fill="#578FD3"/>
<path d="M452.563 432.849L431.979 453.427C420.609 464.797 402.188 464.797 390.818 453.427L329.047 391.688C317.703 380.318 317.703 361.901 329.047 350.532L349.656 329.948C361 318.578 379.448 318.578 390.818 329.948L452.563 391.688C463.932 403.058 463.932 421.479 452.563 432.849Z" fill="#F3E305"/>
<path d="M359.948 386.177L329.047 355.307C328.333 354.568 327.765 353.713 327.114 352.917C317.875 364.344 318.443 381.057 329.047 391.687L390.818 453.427C402.187 464.797 420.609 464.797 431.979 453.427L452.562 432.849C463.338 422.078 463.76 404.995 454.099 393.536C425.64 414.229 385.614 411.844 359.948 386.177Z" fill="#F7B60B"/>
<path d="M431.979 371.109L370.24 432.849L349.656 412.271L411.401 350.531L431.979 371.109Z" fill="#B3E6FA"/>
<path d="M368.505 393.396L349.656 412.271L370.24 432.849L397.042 406.042C386.922 404.026 377.172 399.761 368.505 393.396Z" fill="#6DBBEA"/>
<path d="M206.38 265.479H184.552C180.542 265.479 177.271 262.214 177.271 258.203C177.271 254.198 180.542 250.927 184.552 250.927H204.193L224.177 237.594C227.531 235.349 232.052 236.261 234.271 239.615C236.516 242.969 235.604 247.49 232.25 249.703L210.417 264.261C209.224 265.057 207.833 265.479 206.38 265.479Z" fill="#F7B60B"/>
<path d="M155.443 440.125H133.609C129.599 440.125 126.328 436.859 126.328 432.849C126.328 428.843 129.599 425.573 133.609 425.573H148.161V207.265C148.161 203.26 151.432 199.989 155.443 199.989C159.448 199.989 162.719 203.26 162.719 207.265V432.849C162.719 436.859 159.448 440.125 155.443 440.125Z" fill="#F3E305"/>
<path d="M250.047 432.849H213.661C209.651 432.849 206.38 429.578 206.38 425.573C206.38 421.562 209.651 418.297 213.661 418.297H250.047C254.052 418.297 257.323 421.562 257.323 425.573C257.323 429.578 254.052 432.849 250.047 432.849Z" fill="#B9DE23"/>
</svg>
