<svg width="1080" height="1080" viewBox="0 0 1080 1080" fill="none" xmlns="http://www.w3.org/2000/svg">
<g clip-path="url(#clip0_84_1627)">
<path d="M539.599 197.198C539.599 197.198 533.198 343.198 533.198 538.401C533.198 733.599 539.599 882 539.599 882" stroke="#AFE1FD" stroke-width="36" stroke-linecap="round" stroke-linejoin="round"/>
<path d="M258.63 343.865H820.568" stroke="#AFE1FD" stroke-width="36" stroke-linecap="round" stroke-linejoin="round"/>
<path d="M258.63 735.062H820.568" stroke="#AFE1FD" stroke-width="36" stroke-linecap="round" stroke-linejoin="round"/>
<path d="M882 539.599H197.198" stroke="#AFE1FD" stroke-width="36" stroke-linecap="round" stroke-linejoin="round"/>
<path d="M493.573 202C493.573 202 348 301.599 348 538.401C348 775.198 493.573 878.927 493.573 878.927" stroke="#AFE1FD" stroke-width="36" stroke-linecap="round" stroke-linejoin="round"/>
<path d="M628.802 206.802C628.802 206.802 880.802 282.401 883.172 538.339C885.641 803.99 619.198 874.125 619.198 874.125M585.599 202C585.599 202 731.172 301.599 731.172 538.401C731.172 775.198 585.599 878.927 585.599 878.927" stroke="#AFE1FD" stroke-width="36" stroke-linecap="round" stroke-linejoin="round"/>
<path d="M882 539.599C882 728.703 728.703 882 539.599 882C350.5 882 197.198 728.703 197.198 539.599C197.198 350.5 350.5 197.198 539.599 197.198C728.703 197.198 882 350.5 882 539.599Z" stroke="#0043AF" stroke-width="40" stroke-linecap="round" stroke-linejoin="round"/>
</g>
<defs>
<clipPath id="clip0_84_1627">
<rect width="1080" height="1080" fill="white"/>
</clipPath>
</defs>
</svg>
